<mxfile host="Electron" agent="Mozilla/5.0 (Windows NT 10.0; Win64; x64) AppleWebKit/537.36 (KHTML, like Gecko) draw.io/26.2.2 Chrome/134.0.6998.178 Electron/35.1.2 Safari/537.36" version="26.2.2">
  <diagram name="Page-1" id="p7DF8d3YY0l1FvfLgB5b">
    <mxGraphModel dx="1092" dy="692" grid="1" gridSize="10" guides="1" tooltips="1" connect="1" arrows="1" fold="1" page="1" pageScale="1" pageWidth="850" pageHeight="1400" backgroundImage="{&quot;src&quot;:&quot;data:image/jpeg;base64,/9j/4AAQSkZJRgABAQEASABIAAD/4QB0RXhpZgAATU0AKgAAAAgABQEaAAUAAAABAAAASgEbAAUAAAABAAAAUgEoAAMAAAABAAIAAAITAAMAAAABAAEAAMb+AAIAAAARAAAAWgAAAAAAAABIAAAAAQAAAEgAAAABR29vZ2xlIEluYy4gMjAxNgAA/+ICKElDQ19QUk9GSUxFAAEBAAACGAAAAAACEAAAbW50clJHQiBYWVogAAAAAAAAAAAAAAAAYWNzcAAAAAAAAAAAAAAAAAAAAAAAAAAAAAAAAAAAAAEAAPbWAAEAAAAA0y0AAAAAAAAAAAAAAAAAAAAAAAAAAAAAAAAAAAAAAAAAAAAAAAAAAAAAAAAAAAAAAAAAAAAJZGVzYwAAAPAAAAB0clhZWgAAAWQAAAAUZ1hZWgAAAXgAAAAUYlhZWgAAAYwAAAAUclRSQwAAAaAAAAAoZ1RSQwAAAaAAAAAoYlRSQwAAAaAAAAAod3RwdAAAAcgAAAAUY3BydAAAAdwAAAA8bWx1YwAAAAAAAAABAAAADGVuVVMAAABYAAAAHABzAFIARwBCAAAAAAAAAAAAAAAAAAAAAAAAAAAAAAAAAAAAAAAAAAAAAAAAAAAAAAAAAAAAAAAAAAAAAAAAAAAAAAAAAAAAAAAAAAAAAAAAAAAAAAAAAABYWVogAAAAAAAAb6IAADj1AAADkFhZWiAAAAAAAABimQAAt4UAABjaWFlaIAAAAAAAACSgAAAPhAAAts9wYXJhAAAAAAAEAAAAAmZmAADypwAADVkAABPQAAAKWwAAAAAAAAAAWFlaIAAAAAAAAPbWAAEAAAAA0y1tbHVjAAAAAAAAAAEAAAAMZW5VUwAAACAAAAAcAEcAbwBvAGcAbABlACAASQBuAGMALgAgADIAMAAxADb/2wBDAAYEBQYFBAYGBQYHBwYIChAKCgkJChQODwwQFxQYGBcUFhYaHSUfGhsjHBYWICwgIyYnKSopGR8tMC0oMCUoKSj/2wBDAQcHBwoIChMKChMoGhYaKCgoKCgoKCgoKCgoKCgoKCgoKCgoKCgoKCgoKCgoKCgoKCgoKCgoKCgoKCgoKCgoKCj/wgARCAVnAtADASIAAhEBAxEB/8QAGwABAAIDAQEAAAAAAAAAAAAAAAMEAQIFBgf/xAAZAQEBAQEBAQAAAAAAAAAAAAAAAQIDBAX/2gAMAwEAAhADEAAAAfcD1+IAAAAAAAAAAAAAAAAAAAAAAAAAAAAAAAAAAAAAAAAAAAAAAAAAAAAAAAAAAAAAAAAAAAAAAAAAAAAAAAAAAAAAAAAAAAAAAAAAAAAAAAAAAAAAAAAAAAAAAAAAAAAAAAAAAAAAAAAAAAAAAAAAAAAAAAAAAAAAAAAAAAAAAAAAAAAAAAAAAAAAAAAAAAAAAAAAAAAAAAAAAAAAAAAAAAAAAAAAAAAAAAAAAAAAAAAAAAAAAAAAAAAAAAAAAAAAAAAAAAAAAAAAAAAAAAAAAAAAAAAAAAAAAAAAAAAAAAAAAAAAAAAAAAAAAAAAAAAAAAAAAAAAAAAAAAAAAAAAAAAAAAAAAAAAAAAAAAAAAAAAAAAAAAAAAAAAAAAAAAAAAAAAAAAAAAAAAAAAAAAAAAAAAAAAAAAAAAAAAAAAAAAAAAAAAAAAAAAAAAAAAAAAAAAAAAAAAAAAAAAAAAAAAAAAAAAAAAAAAAAAAAAAAAAAAAAAAAAAAAAAAAAAAAAAAAAAAAAAAAAAAAAAAAAAAAAAAAAAAAAAAAAAAAAAAAAAAAAAAAAAAAAAAAAAAAAAAAAAAAAAAAAAAAAAAAAAAAAAAAAAAAAAAAAAAAAAAAAAAAAAAAAAAAAAAAAAAAAAAAAAAAAAAAAAAAAAAAAAAAAAAAAAAAAAAAAAAAAAAAAAAAAAAAAAAAAAAAAAAAAAAAAAAAAAAAAAAAAAAAAAAAAAAAAAAAAAAAAAAAAAAAAAAAAAAAAAAAAAAAAAAAAAAAAAAAAAAAAAAAAAAAAAAAAAAAAAAAAAAAAAAAAAAAAAAAAAAAAAAAAAAAAAAAAAAAAAAAAAAAAAAAAAAAAAAAAAAAAAAAAAAAAAAAAAAAAAAAAAAAAAAAAAAAAAAAAAAAAAAAAAAAAAAAAAAAAAAAAAAAAAAAAAAAAAAAAAAAAAAAAAAAAAAAAAAAAAAAAAAAAAAAAAAAAAAAAAAAAAAAAAAAAAAAAAAAAAAAAAAAAAAAAAAAAAAAAAAAAAAAAAAAAAAAAAAAAAAAAAAAAAAAAAAAAAAAAAAAAAAAAAAAAAAAAAAAAAAAAAAAAAAAAAAAAAAAAAAAAAAAAAAAAAAAAAAAAAAAAAAAAAAAAAAAAAAAAAAAAAAAAAAAAAAAAAAAAAAAAAAAAAAAAAAAAAAAAAAAAAAAAAAAAAAAAAAAAAAAAAAAAAAAAAAAAAAAAAAAAAAAAAAAAAAAAAAAAAAAAAAAAAAAAAAAAAAAAAAAAAAAAAAAAAAAAAAAAAAAAAAAAAAAAAAAAAAAAAAAAAAAAAAAAAAAAAAAAAAAAAAAAAAAAAAAAAAAAAAAAAAAAAAAAAAAAAAAAAAAAAAAAAAAAAAAAAAAAAAAAAAAAAAAAAAAAAAAAAAAAAAAAAAAAAIRaaxJXs6ZV1jFSyUo2uiN5AAAAAAAAAAAAAAAAAAAAAAAAAAAAAAAAAAAAAAGka4g6GLtVsV4jztrrOF6jCKbBR6/Fv3VsbgAAAAAAAAAAAAAAAAAAAAAAAAAAAAAAAAAAAACpbrYs2+0eWd9pZqrBbq3G2jFzkVNyZaGd+iab9IFAAAAAAAAAAAAAAAAAAAAAAAAAAAAAAAAAAAARVJc4tnMdnLO+mud61ZoNc8yw51m1VziWrWsRli/zelrQagAAAAAAAAAAAAAAAAAAAAAAAAAAAAAAAAAAAFPaWli3rdJlZ10wayQSWY0zhBMc2K9UXHX5fU1Q1AAAAAAAAAAAAAAAAAAAAAAAAAAAAAAAAAGsVONoLC4j32RSXOdnXZCM72JqlnGbkxDLPpHrNwTVMF7oQT9MhQAAAABFvLsLAAAAAAAAAAAAAAAAAAAAAAAAAFWWrJNFhrmxm6UkkaKtoYsc3rcusZixpnM3F1sVOfo6MnJ1l7POxfXg3+j5/fLoMZ68QoAABrtzs3MvP1zvuo5N8woAAAAAAAAAAAAAAAAAAAAAAAV40tR2pOakk1itMgTOCwuVZa2lrly9pyLWOlrqoufpiEBUOtiE6knG62def6U/L68bo68hXixHUsY6VtPQS46eaq+wxNfN5PolOXzPfpV98+s5nR6cdhqAAAAAAAAAAAAAAAAAAAAAAOf0OXJf1kiSXbNjO6lXqc64iG+Vmvg1ivZnjhdul6Pj6lK3Ux1Cw1jJkchUvRU173D7WZeftybXbz637Vjl312j1zZNMDOAbaiRGMcfsq4HRtcXfLooZuvEKAAAAAAAAAAAAAAAAAAAAxXs87K/DJEzazrtnetazX1iDfezrNAXCaGOat9WvY83virWK4FgEMVuMkrw3TN7h9Saq9GK0IyAAAAAAGMjjTdPi9Od1jPbgAAEEWSRjNAAAAAAAAAAAAAAAOT1uZFyJvefQhj1x02g3h1z1GsCRY1yPHTq4zjz+2Kter2QixrsMI4jeGzVN7EXSln0FCAAAAAAAGuw4t3V24bGN881qvUx158/Z15damLMa0oOtLZzd68nXhIN4AAAAAAAAAAAAARyI4vT587Od9Gue20fRzrnJI9ZbaixNQ63LvOOPqII6zHnCBYBV2sc8m7Eck0AEAAAAAAAAOJ2+TqQY689znOlHO7fPrW0rSWVkG0pZqE9hIkE/fzBQAAAAAAAAAAAAGvF7kEV1G9eQXIVvrdpY3W9B5b1vPu03h5+iuLkICmuwrTt5btC+l8Xa9UoAIAAAAAAAU7kZvmLkkmsk+pjOIkmQSmwE8E0tOfTfrwDpgAAAAAAAAAAAAAaRWod/fHSpUxQ1y6GtVvnvDMlg9b5n0fL0babufeli3VTAsAGDW9zrU1Nrw/AR9ZqfJ+0fS5vlXSPobTcAAAAAAAa7annugpXNuvvbqpPKNWwATQ2JdYb3K6c7A68QAAAAAAAAAAAAGc2Mb1ZS5zql40Hf2ufLZ9RrZ5r01Gzjdkc+2tOxXsCwBDNiW/5L11JfmPer/UZdeX5eLXLq72PN7xa9h4/vY6dIZ2AAAAxkeM7nW4FegxjY4FyHRnfNnNV5JAAAt1bsueX1eVvEw7cAAAAAAAAAAAABpFm7Tscu0W2dyLSxBZjfRZJGEcN2rnVxpvz6wQW6lgWAR3OZ3JrTzfo/Pp3+N6PwSIuHxemfsPx/DPX0nq/kf1a8fTxx2MddY5sGQGPKJY8/27lz4nt+z8hnp66b4x9JTvIpDlzVdrLLTewAA3mXSxjMu3L6nJ3znHbgAAAAAAAAAAAArWa8dGSOTl2zJHsu0EsaaMyWQixTuVhe5PRx0lr2MZ3SbashUPW4/YmtfPeh4tnf8L6/y95+Ch6fm2+jWr5zt9T+X/c5JZNtKi2lwNJcHFrc7nb5+58X1vnVex9z8v7bPW8P9p+Jcu/0fq+fu2Wc67IFgDOBb3o2pZBLpSsw9eIdeQAAAAAAAAAAADXZC5x+xz6pYLEusedTQayzjYVrdMqyaSxcl4va59tKl6Fa8s2qUupwey3nEadeF0Ohwtebj+E+kb9fP8m2+g2efXm/R9JMdYcy4rSGXdNoJcr8cqYi1ZtdKxp7nwnurw+n/Ovf+Y59rvXjmObJDNYFgACSOWWyZlqx4z384bwAAAAAAAAAAAABUu683G+7qxNbYxlNtJYpRmzFGzTTe5z95qC3rtZfxx8Z3YxSt6xH0oaU108zuXpC86/N7Q53QzqSRyV413xWq9jnbF/bGT41wvrHgE4xcMe617XTj6/yvoPPc+vclxma5U8E9gWACzLBZ3KxmukGx6PKFAAAAAAAAAAAAANdkc3tVOdjp3ENg1BmWvSlxqluddbUGdzIpenMNZVbSOXH2OZnfYsea7/HvMJQEUtQuwzQENjStV/HNsi00MeT9auPKY60XTjX9DxZOfer3ZJJppvziC1jNyAAtVbsuRKpTwdeQdeIAAAAAAAAAAAAAAAHPkuMaj2r1pbmamVtax2rIa28kuLOzeAsAAqaXqPPp0peRd5drmtUSVpYjq6q0tjNPSr8UFmHJv8ALs6tilOTiVpvq1pjTd6LHGm2vl2xZrIFhtYXScla5rXOg7+YKAAAAAAAAAAAAAAAAAAAAq2NuXm9QagAAAFOv1NMbznz3S5dr6OWW61gWyo5LusMp5/qcbtWAm01ctvNOeJItOTUluV2882KHW496U8u0o1XbWvrvntodeIWAAAAAAAAAAAAAAAAAAAAAIpUcrq6c2a6rn37MiwAACCr0aOdUPR83pcfROR5sivmp6s/POf1al5NE2SKWnSO3yq9/eKfSa9OOw1MVrWudXs8bfl26FLE++YdOYAAAAAAAAAAAAAAAAAAAAAAAAEdHpJeVt00tO3BWOi5ex0nNvWSRSxjNvlef1dnSbWMZBxO3zq4zu2k8tYlvVB0JsxSzHJ6PK5PWp53LPBPYGsgAAAAAAAAAAAAAAAAAAAAAAAAAAAAAAAa0egl5eenXxvqcH0NLl3uY4fcgBjIqyTQVx+hyu7ZPglob1LffzNN4kkzpvQWAAAAAAAAAAAAAAAAAAAAAAAAAAAAAAAAAYpS3eXaxrLry68aPucyr+/krSej14up1+RHdqfoEsW22DznYhh3ytQT4s3HXkAAAAAAAAAAAAAAAAAAAAAAAAAAAAAAAAVK+Ol6TS5nUOJYOfS/UuwLJjI4sV/nXN6xHlc2uZ1pWuyI47FWo9sTFbaxR3yncu3vFkbwAAAAAAAAAAAAAAAAAAAAAAAAAAAAAA03q5snQ3l8/wBChF1+KnRhsU7y2sVLkAVuH6Ljak0vOyl/pQzTQQ4/Z8/XYmgslCSv2Z1q8zuQLR2qW/T88LAAAAAAAAAAAAAAAAAAAAAAAAAAAAAEM1bHXoxTR8Pob0Ojz06fOnoXy79jzfpljEOb0qlnDt1OpXTGa21wQ8Po8vWer0OPelqdKhfnqhni3XnWatrv88N8gAAAAAAAAAAAAAAAAAAAAAAAAAAAAFK7HnXXm8p2fP7Oj5u1zrqzGa4a3udEelQ087tc3U3Vn3WWbnI3l7dWji8qk9SzZvLGNvSeV6Oe/Ziq8aZ2vRyejxhrIAAAAAAAAAAAAAAAAAAAAAAAAAAAAAEdLos65O3UTVCS2ucY2XPKz1MY7cqe9ldMSN8KNbr6c/RQi6clzrjdvjSj6Ka5OOumubcmWBrAAAAAAAAAAAAAAAAAAAAAAAAAAAAAAAAAAAAAAAAAAAAAAAAAAAAAAAAAAAAAAAAAAAAAAAAAAAAAAAAAAAAAAAAAAAAAAAAAAAAAAAAAAAAAAAAAAAAAAAAAAAAAAAAAAAAAAAAAAAAAAAAAAAAAAAAAAAAAAAAAAAAAAAAAAAAAAAAAAAAAAAAAAAAAAAAAAAAAAAAAAAAAAAAAAAAAAAAAAAAAAAAAAAAAAAAAAAAAAAAAAAAAAAAAAAAAAAAAAAAAAAAAAAAAAAAAAAAAAAAAAAAAAAAAAAAAAAAAAAAAAAAAAAAAAAAAAAAAAAAAAAAAAAAAAAAAAAAAAAAAAAAAAAAAAAAAAAAAAAAAAAAAAAAAAAAAAAAAAAAAAAAAAAAAAAAAAAAAAAAAAAAAAAAAAAAAAAAAAAAAAAAAAAAAAAAAAAAAAAAAAAAAAAAAAAAAAAAAAAAAAAAAAAAAAAAAAAAAAAAAAAAAAAAAAAAAAAAAAAAAAAAAAAAAAAAAAAAAAAAAAAAAAAAAAAAAAAAAAAAAAAAAAAAAAAAAAAAAAAAAAAAAAAAAAAAAAAAAAAAAAAAAAAAAAAAAAAAAAAAAAAAAAAAAAAAAAAAAAAAAAAAAAAAAAAAAAAAAAAAAAAAAAAAAAAAAAAAAAAAAAAAAAAAAAAAAAAAAAAAAAAAAAAAAAAAAAAAAAAAAAAAAAAAAAAAAAAAAAAAAAAAAAAAAAAAAAAAAAAAAAAAAAAAAAAAAAAAAAAAAAAAAAAAAAAAAAAAAAAAAAAAAAAAAAAAAAAAAAAAAAAAAAAAAAAAAAAAAAAAAAAAAAAAAAAAAAAAAAAAAAAAAAAAAAAAAAAAAAAAAAAAAAAAAAAAAAAAAAAAAAAAAAAAAAAAAAAAAAAAAAAAAAAAAAAAAAAAAAAAAAAAAAAAAAAAAAAAAAAAAAAAAAAAAAAAAAAAAAAAAAAAAAAAAAAAAAAAAAAAAAAAAAAAAAAAAAAAAAAAAAAAAAAAAAAAAAAAAAAAAAAAAAAAAAAAAAAAAAAAAAAAAAAAAAAAAAAAAAAAAAAAAAAAAAAAAAAAAAAAAAAAAAAAAAAAAAAAAAAAAAAAAAAAAAAAAAAAAAAAAAAAAAAAAAAAAAAAAAAH/xAAzEAACAQMCBQIGAQUAAgMAAAABAgMABBEQEgUTICExIjIUIzBAUGAzBiQ0QUIVwDVDRP/aAAgBAQABBQL/ANXlLqKy5rfNXMmr4nFI6uP1MnNYxW841+GRgkxV/wBQdsUo3HlgU/nplQSJaylX/TnbaqCo/TUkmaxWNCoxrNCZBbSc2L9NccyVB3Y0BoaNbjjUEYVtl7+m2rDH+loUFzTjFHz0S+Z/Yh3L+lynEduMRPS6A4pznWP3S+Kl8sMrYn+2/S7v/Hi8P7gpxRo9BJOknuHY2R/TLv8Ax4fD+4OMUaNIgIcYOsnuqw8/pcwzFaNmBjkis1nRX20Tk6RebiiPTYD0/ozMFBuC1fOakhBMlvtG+eOrBsx/RY4B71L2Wx/g/RWckmP1dK/Ku9I/dJ7dXkVTtuGpobk03MjM8qukK7Ivq7vmZ7/lZWpH2qeq4TfHBJzI+hmChInnpESMBq3VkGrixilotJbkHI+nu7sdt0Wxc/lHbAHQiDa42trCRBcyDB0YhRBEZC7Yrbmtgr1pST0DTAOJENowOR9KZ8GX1rLJzIo3Dp+T7uwTYG7tijSyYDHJ1mTmR28+7WJedIxwOhlqOTlkGiA6gG1m6mdVo3cdfESGubcVK0xpmlSo7ob7aURkd/yUpq3907YQCsUR0CMYYYNTx5aKTdXqcooRXPfpdat32MO1XUImitZCy6yzLHQW4mpLKIFYwK21tFba21JaxSU3DIxQt7m3AuttKwYfjycyReG7sKwTTDFNqsvYnJqWnXvw9Ds+hItW8m9Fq9TkyqQy0XeUwW6xkLWQK3Vk9GTW6uxp0BD2QFCdoiDn8cnhPavkVHUvhuoRgo8WZQMB/bqRWWFK4bQ96DcqWmAdQfg5Bm4MaBR2FZ+oyh1eF7YxSLKn4s+IFBhHtSho1NoVI6BJhbT1vUnjpdAaDlTUq5Fo+6Krj+4aNAATj7C4gMbRSCVPxcEmAnsShoaNRe6T26scLAmyKpPHU67gjbGpDyrmV9qwx7FPb7K4TkSA5HWZEoSKfwR9N1FXhlUYPY0eoDdJpJ46M4oEHSVA6wOauE3JbMZgOw+yIyIvkydEs6R0ouZqWwBoWcAo2cBprFRTc6GkYOPvrwbaQ95B3WXtu0PQg3M6DbbLmY+dHXpZAaO9KVgwnQ0riSKNdqfaXiExo25aJxXMkuGtrRIq7Cs6b1oOKzmpoihRg6/eyLvS3bt7krNZoIT0KcFpMiy6WGD0yIcxuJFt4iJ/tkIhZ7uMUlvJcUqqik07hA07NW0tQjrlihuWo5N1SDkzffXS8uQHtqpG2T3dFt2h0L1uNZPXL8qRBgfbXUEck8cUcWs0+0hSzBekinUSxQsWj+9YBgvyH6lUmiMVI3aHtBTeOs0ZNlABzV28qRvDxCSrGO9jn+zuh8rSacuY48DrjojZc/fTRLKiM0TdMR9Nw43Gl/jqTx9A+LWMRr9vIMoh+XLKZjGgUaGRBXMWgc9Efm77fgLkIyjfbUQrJoTii+q+ymGR9D3MTinO1IpFkSSaOOvjrXKSI/2Z8b2nVECiSVUrdI9CKggFYrA6I6u+8A8fescUkYQEZqS1ZTzyh35oYNbK5ZrYBUf8WjLmj1GslIWAuIBxEQvxC8BuoLO7vCP6euyG4RxC2qy4xLAyMHX7A+BhVMrS1HCF+jH4cZS3/g+8NRrqPMiKyvYpl7eYVtlFYegjmoP4dG7Dqf1HFTpc2DcU4m12nBeCggAKLriFtbV/523y9xw/iK2wfhdz9WW/uo5LK+S50NNEZX7IOetcx63tQbqT2/8AMXt+8AzQHRnQDNEY0kGDbHtpJ46rUbpauJBHHwSz+Nu/9cR4jLcTWfD4le4thDClxbXFPH8nh0vOtfqEA1ccOVmXOKml2UsO4/QHmv8AmP72PuP9DpBxTHRxkRZV9JOqQ7Utk5dvXFsvBZRLDBx66aC1tBBYRi7t4uNX19BHa1w299fDPRNTnaqnIZiH6Lvi0MJk4lxJq/8ANXsbWnH43qKRJU1SNQ30Yxp/zH4+7c4VPDHsKxRHUtTUpyKYZHTcdwdJfVxCL2cQzPx3i0m+71LevhD812lAfqubg3UkMy2oHGFWv7a+i4lwBWW0up+HTxcVtJEjbetPHvYQIKAx1BSa2DX/AJg/i+7uf4VpqGhNHql90LYOjjp83Leak9PEofD/APzt6229BzWad9P6aQrYmNST4iJIdNxPiNdo4lKQlmkXOvIdlvFxCGSniktG4fdpe2/9Q8OFxBwO6itp14lbuU3bf+uodiDnolOIUGF+7uBmFfa3QaXy3jWWh5Dd9GGDqP8ANbzXEUYJbyBhxROTxbjkOy61jQu9rFyLegwOgOdbriCQcUTiaJxS/wCMwtbVwy85c1q/wHFvI4hELLi1txKw5cV18Uf/ALPoKc63H8X3jDK2sm6A+BqekjFS+Kk9sbb0phkaBKcbbxvORn3KD8DLfQi7tdq3lrdW0ltJQBJ/p2xJlpCxpUC04ysKldFUhrw7rzQ0T6uIHmcNgbfB/VcY50NlbUAAD/k/Qj92lx7/AL2M8u6HgdiT26R2pjUujeyyba2mygoFO6oJpSZn7qpwc5Z0WReVPZ1I0Nw3lZbawFW1pzqjQImqOHonAByKvDtvQ4ouKZt2k428Bshts/6gj5sceh/yvoR+aHlu8v3tyhZIJRJGegjpkOWj90v8apviiuM6E4DXG4pHg3a7oYW3xYNAaywxyg8Mtahs7eHQUSBXOjoOrUABTDIUYFcZhMfENbWFp579ebL7Vv8A13Eftr/9PXg0owKzgL4++z8NMD20FE9tXOBpJ2SMYjdFcCDbRtg9bZbeopkko9xZts+gfA8ctK5UdNaQNXIkSlnZdeMQKTd8PltzUFtLO1vBFw2DglqxeRs1bn4i6Gid36k8azePv3UOsUhtm6R5cgBjk0oyW9TdMsCSVumhLyLvjbrk9n+mdVr4iGlZW0xmhHy9JEWRG32LPyq5shW24fukllCq8j3phjESU52rbDEPUnt1PdvwDoHUGS1qKRZV1YgUzbtI13GUBVjMYJfL9U9or1Zs0dK3VM1H28tKMaGjaQ1sniqOYOaZgoU7gQGBsQtcu/Fcq+ahYIT6VFf7vz6B1jWQ9vwb2wyLqSIJcxODJXmu1dq5neR6lYARRbIh13EXMW3m5lBsVuFZosKLZod7g9Lor0uQJH5twh6ScUhApWwQfSg51z46kXUnFeT+Fe3ievhcVy565c1CGlULVwCxii2n6NxDuqCfmdNt6rlq5Wa+HSuRit0qUpDC4k5cdkPk0rdBGdFGTeTbVtcJG4z0AZoLjoY5/G3AO1WDL9KeAS0k7RtrYd06cVxFt7DsNAxFb63Csigc1NKEWBTIzion5iOuip0E0xz+PU/DzfTdA4bm2s0Vyj05wnDxi0Pg8w1yXNCOQUC4pjhY/mX/AFKlTTKiorXDaE8mWto1JAHMz+RkQSIkjQN9OaPmIqJcRywywx2va26bg4j4f3TUKTQjrKrU133SAu2pGRFJyDpJIsYG6Q/knUOvKlgpLpMg5+k/y5rj/Htj/b0zBa5tb6BzV+22K1XZbgispXMUVJeRpTXhkrkzS1FEkS1nvqyhgImSsT0sQB/KuiuPhQtf3SV8VtpLmF6yOqVQ0cif2/DjutDQUA68U/gW1c09tcx0IiwFnGwjtolLLiMayn50L7h+feGN6+ESuVcLXNnWheR5V1bSTsrD08PO1z03yboFflrG+9JBy7iKgMaR+zTZ6lTa/wChlQaa0iNcu4jpZmaSp/7e7HUyGkXYlz3mh1TVuwH6OzjnnxcxCWOxmI63NIeZPGuBpC4Mmj+U7r+jQrl5iQq9xeW++ra7yQ4rIrIrcKL1cSlmt4Qi1Iu5R2AG1qYhRg7f0ab1VKAtMdDVzbLKC09vS3y18ZBRvYa3zz1YQhYtW9tmoeOIsF2baGWb9E3rQOagXMtycBl7tJiTS4jzUA3RCNDSogqZgkSLtSj3CLtWRu1l2hl3Rzf7yP0O4nENKZDUU0e4wo1JlavBm28ptG7SeoW2y6MN82oI3XJ7Wf8AjSZauSgqZ7dGaRlqCZZl/Pu21baKt5qVFmS1kJqQblb1RREvZjxpMO0vpYNitwq19Ta7avWxGvyoUG1blyBEiQruzVzDsKncv56Ub3kWnxy4x6Jvl3QrdirDsmrDIlXIhbdHKcJEgjj1fstwcsG3E+Yhvu5B6EA5aLlbf0/n0/yy5K0shUXH8dM3qtnxeN51mHceieEb7nUeZTWc3Sn5lWn8LSFlycJJhT2vfzydrpYywIweWdtx/CzZpu7OSjHuNZx2ue0dgPk9ErVb96X37vTbfwcs4AyWQrTHN5+emOySE5TAy5wty3Ytow3LYSbodJpkiFxcB47qEpb2wla3iuAIYpUlWpGq5b0qNq1uq0OEU5XaMzHCQ+ub89IodIJngYXa1JMZK9z6bwa9cMquCJbhg6SCa6uod1bufKp5MlpDgM6wXAuSWY5obnl3jOg9LxT8ujdpVxO8zRoI0/PyRrIOTItFLk0I565L0LdKAxTKGGJIKgniWuZELg82akUIsiCRQ0kNK8T3VzLEaG+alUKrKGBtxRilFFZ6HxFcqVqijWMfpOKx0sqtQjRf/RYv/8QAKREAAQMCBgICAgMBAAAAAAAAAQACEQMQEiAhMDFAQVATMlFhBCKgcf/aAAgBAwEBPwH/ADASpUepCP6sRFv36cWARuHePVOQRKCPpvCBUoFFBQj6M6LH+F8hQdNosBKwFYSEc8dsmESgJsDCjzZjcSAhSuU6n+MwEqO2BpKhcWIhNPhASgIGWo3zaEKaFMIMAUJzEWx2DwvCATxaUBKpBHLysGqa2M7qf4XHW8XcgNLN5TRojvvbOWOl4WJE3Y3+3SqNizac8oNAsWgpzY6DrNE3o6npESgwDKRK46BbFyNFQ7NQa9CE9n4UKFR7NXfaLxKwBUxGw+pGgRqPHITKgfv1ON8KERcZQinGGyqbYE2wQ6chcByhUadqpxvC5UXacpT9WJhkZnU8Rko0WlMJacJ2avQGQoIXZqixEKTT/wCJtTFxnq8hHMLVDrvtNzcFB8L5AnElUivkOxiCkIHG5c5yj0AZvMWAThFpTTsvZiXwftBsaBYYyi1Q+OkHKbYlKnIx203laKdcrnQiZ63OZr4sNguhYtUDN3PhEz2OVGUIZy+ESTZrsKxhOfPHbBUrRYVCHOweVT5Thr6KU0ydh3Kbyj6OmPN5U5HtlRgHom0y5fEgI2PC+OU6mW+gaJKEBHXYNm6IwU4Qe/R+yGFaRoihY5QoHlEBVvt32OwmVzqF9RaYQQZpKluKEWQJRv8AYLjUp5xGfQNeW8I1SViNmVsKdXJ4Upv8g+U+ritjKFUhOeXf4df/xAAlEQACAgEEAwABBQAAAAAAAAAAAQIRECAwMUASIVADEzJBUaD/2gAIAQIBAT8B/wAv9nvCl8lsWLwn8eWV8p5WhfGZWpfEo8RrTZYvhciQ3WlujnMZ/wB6my+22Wc4TGtcH/GXM82eRZGYmn2myLxQ2Tevz9Dd64z/AL67yi8MfQjKtN9OhZk/XSg8SmW3hNojK+gsP1mfpdJOhyvTwLoJ5v2fk7MH0LEyyz8nZ/HvvRZLWyML5FCLHHx34c77wsvWlbJCVDlarRQ4svZhzvPK0SWqP7humXpTojJklfvZ/H0HoQ9DzSmONabLIi2Icb8llZY42eDIqia2aKP2orYXQqtLZF3lrZUqP1Cy9cF/PScSmUUUVolHopWLrcanGytlKzx9DVZUBKuxwXpY9agJViUbPBkYduij2WWPYRMjx8KiS9bEeB8C+HN7EZUX5fCcqP1C72fOhSv4DdbSyvQn358aHtQ477VjQlis16vSxIiqXwGrPBHisOAoYcBQx4o8BRS/w6//xAA/EAABAgMDCAcIAQMEAwEAAAABAAIDESEQEjEgIjAyQVFhcQQTI0JSgaEzQFBgYnKRscEUNIIkQ5LAU3Oi0f/aAAgBAQAGPwL/AKvNmwytVnmV7MHkVnsc1TaQflqbMx+8Lq4+Ow7D8oy220yrrl1UTyO/5PJKmdYqakNBm4jAqZ1hQ/JwaO7U2S0RlqxP38nPfvKno7wxaZoEbfkxx4Jg4KWjITQcRT5Mem6GuRF+8/Jj0zllVy433fJjhwTDo+KBUQ/V8jzcV2TZ8Ss6JLg0LOiP/Km2M8HmqyiBObgQ7DSNU95n8jXYYmVnm8cr6X00F1ue/c1UhtbzKwYu1hOA3iqcWGaa3cNMG8JqXxa638qQGXTWFQg7JmTRTdNkPdtKk0ABY2VU5SdvCAjVZ4wqaSSYdjhJAb2/Gq5MjqRPQ5EzghEiindapBVNlCpPpxsqptrBOI8KmMNGH+Gh5K6DXWYUyM3XhmoQcMD8Uoq5ElPIIVyJrt9bZn2bfU5cjqfpTFnVn2TtXhl5xAVJu5BZvR4hX9uVP+neDwXsnBu7cpmjtv1KlYJ/+fiYboaqVk20cMFucMQgxhqUGtwGguHA4WEfhFr/AGjKHIrjuX/iZ6qbgYjvqVABk5zGldmXM5LsnCI3cVKOww+am0z+IO4U0Nci82jgutfrO/WirrDGwR2YYP5IEYGy7A83KeL/ABFV0UnCYV7o7jDd6K70lt36hgqfDjz0lU1jduXvyA7YaGwgq4/2R1TuUm0hjE71daJDTScJhXoOdC2s3K834aNBXIqnRfIaDipP/NsnazaGzqe73ig1tAFT3DroGPebvQc34Y9u0OOkKa3RXHYbDYDsdQqmsaBS27SpD3Lrmah1x/KmNBrBUcPgTx4hNStloGN46S4/WHqihEdSVFP3ORRgnDFvLJqa7lQCE3jipxXveeJXs2rUauze9h4FZ4vs3tU2n39kXwmtk9DRE7hkUyvEFRX2awwV4bUB7rfbrsqECNtkyrvR9Xa9T1nbXHI1gqOVUYsHHa3erw9+LTtRa7WbTQzUk53HR34dHftcdoTvBj5+7vhuOBmOSkzPduCn0nNb4B/KkBIbrJuMlmCQ3lZxJWyzNKkcVMezf6H38RhycqZJyRbTQiJ3TR3vEJ0Rs+6uzYG8rbrM5/6V52c7K4otO1Z2sKH36RXVO1e6cuiqpJvLRUXaCQ3hAYizsGXnKbnEeaAiTMPbM+6T8JvW3IOG12iPheJjn7/dcurjY7Hb8umNg0dUZba+8OTTwV2HSHtdvyNYLHKhv3Or8AuOF4nAIdfWH4hsV5uRS0aMN/KCJ3IOYZgrPe1vMr+4h/lZjweR9zKawTbDHqqKuO5UzVnV524ZBTuXv9MSpmrziVIq90d136TgrsVlw2VVHBbFVyGjMbHbLgs11HYELqumjq3jvbHJx6G57GHGRxU2Me/iVXqx5q9DH/AoQunNP3Sqg5pmDt9ymaUUoVG+Jcd+jZy9+vHE5GcAVOE4s/Spcd6LOguXs3/hasuaHLRBg7yknP6KOtgGpZ4V1RhXK1TY/SxyYpCgXaxBPcqQ4xG+6uri0J8QkUID3XuixNR27TG9DkOSlqv3W55zBgFuWbN3JezP5VWHQy4n4QRonvOAzRY4nYJp3S44m2cxPbYejdCNBrREA7Oina7FOeAXS2KWBOxydAcSYRwn3eSaTrDNdz0tRNX4B6uIhPGy60TecAr0Y3nemkd9x99Gjrt0JKaNtnVNxiOuJrGYBBkL2sU3QofWnWxXWMd2ZEiU49Y0kigFg6PFOOqV0lnEOsmBYBKmSWQwY0Tc1TZ0a6PtXaNb5tUukMuHeMFehuDm7xkOfLOOinYUeZ98KGj4qegawd5wCFnR27pusa3uwmzRbsZTImE+JvY2fqpZZhscWwBRxbi7kpdG6F5zqv8AUQYkPjiFOTIrEX9Do7wFEVEjnMKn1kvpOKnIjnYc4gA7Fh66Rp3198dpZaCEOZtgne1zUV0ie4KNPxW0sLj3ip2ZyFkppsGGZPi0nuCEAGrRgE50JovNrVXYrLn6Qj9BPEtGDkIjPMbkY0Mdqz1CPXgXTg6WCuwXGK/c0Kb8dydz0jkB745NOjFksuH9ptEVgzoZvJr26rlCjd2K275rrO7EyGtbiaKHDHdFlLKWucW3rgup3SGslDcJEJzYEy5wlys6iIezd6FAYQY9POwi7NgdelwWa9kPhKSl0YG5tiHDyTxpOfvpCG8UOlBGKDsqFyKCKM1dd/bvND4SrgOeKsPFGDGzYgx+kq7EHnvsov6iIKN1edhvBGSIRnYSSo5+s5E1BjbaFQ3+JoKgRP8AFT6hk+SkBIKJyH86Rg9+c3Y+o56MWBOYTRxmMnOKguuybOVUFNTRa4TBXY9rB8G0clfhv6qPtDqT5q7GYCONQpuYB5qUKD1EHa7vOQawSaMiimVMWR/vOTDBxl/KgDcwfpQv/YLYn2j+dI4+Xv15uu2oQeFPSUo6dCrsXNf+7JlXYAvfVsV5xvP3lHeK5XaMa7mFqEcnFThwmz342FVK12/lUcCqKqkLI1M0meQyG3aujdDhbSPxZ0Vn13j5WxTwA0nH3+f+0/HgdKFJwmuzivaOa7Vzn8yszPh7tqoa7rHQvAfTQlVaDzWo38L2YHKi7GMeT6qXSG3OOy1sR47Mi4/hxUwL8PY4WShMJRe8zecSndMjiT36oOwLgnxu4Mxn82xT9Wjlv+AFpwK6qLqd12XXRTwdvCzxfZvCbHhmYwdoDZnOAXtG/lZpBsqszV8Nha8TaaSV18zA7r93AoOdDZzuq7AhOPISCEXpzg9wwhjAKbiGtVyDNsDvP38kGtEgMLCdyE8TnaOfwG64TCrN8H1CvMMxoKLPfdKxm3Ycslma4+q6iNrDVO9Vyg3ebNVv4VWN/CzW3T9NFmP6xvhdipar/CbCSpqREwv9NFfB4CoVIsB/MELOjQmfa1TjvdGP1YfhC6hYIbcXmWjltPwS9CcYb+Cl0iHMeJqzXgqiqsVgv4QvKUpk4BS2quXSjxgVJ1IjcRlM4CeVXHeqq4NVlTl1svFOf3WZo55c8ifwararMivb6r2jT/itdo/xWc8lUUm4yorzqv36K/DpEG1XXC7EGIyYp2CQsznOPmu9/wAiuzivbzqs8XhvaphEq+cX1srl3WYmgCDO8MePxe8MW1QI0cxmvGDgrnSKHY7Ycgu3uOW2EO8ZKWVjYayAXXP/AMRwU26wwU1SyvxS6fZuw4aSThMK7DzoZwBUjmP3ORPBM5WYhvqqx3+UlSMTzCzhMbwiidjBlzcsZBB8QShjBu+2/wBx1Hf/ALk1VMPiJa7BdXG1dj9JJSitzhQp3VRJslg5M+0ZcSJ4nZNVRXWZ7/CEH9IMzsbsGRIrq4mp3XfxbnK9E8m7vicnCYXYm83wlSiZjuKpog/uuoVE5KH9osziqNcfJVY4WHkmDgqhYLBVe0LsYb38cAu2fIeFikwSsltyJOEwuyiuA3Gq9sP+KvGbnbz8Wk4ArsnuYu7EH4XaQnt8lR4yyCrv0yUPlKye3fkc6KUOLF/KzokSX01U/wCoikc1nF7ublmQ2o5BO6iPD5AzmArMLm8isyNPg4LPhT+0qT5sP1LNIORGheF0xlHggGidlMH/ALyBa7nNGWEvkSoVBdP0rMiXxucmMiQi0k47LGRe6c12XmyW9QhxJyDzNs/kiE3bNBFp2owIuuzDiMuSe/YM0ZEVu0Ota3egfkdsV3edTkqKqDmG7EGBXVxc2INh25NF1MLWOJ3IbhZKx8bYIkncqWTKvOxfQD5HEMYuooTRgHIC2Th5qh61g34rtWPZ5L2gVHXuACzW9UzecVPf65MYHBzyjDlNzaK/FPIK87yG75FxVE552UCYfrCmpWlN3rOa38Kkk6WKa0bBbJFT3uKvslJ1CrzzM8Vj8hja44BTdAc7mZK4YfVu3ELNF08Fcdj+0/hVAqeQ9nnbDZ/lklQ+U1cbj+lnZxV3qwXbmtqpthRRzqpt+QCSuui67vRYKTh5ow3nPZ+lMYhHiEwjGWS1/kbYkT/EZE05D6QvqOKDGa78OCk0cydqqF10LHbxQIwPx+HD8Rqp2w3bCbpsLU9nhdkuahPEUKpiaBNaNmSxu9yaDY95wGaEbDuT4fhPx/k1SWJkpKe4zsKcNjxPKlsf+19LK+eUPpE02ye0kn1UpKU6KUk76m/HzxbZJTTrCmRB3TXkp5N/wmavbXmeU5/iKFjOSnaODPj7ImzA2lBu82kK47WbQ2zecdiHVGpN3knSeXTpJybdiXBwCvRyAQbvNTYZi2Q1nUCAGy26dhsnZEibNUfHy04FXHY8e8qtcFuap7Bbm53JdbKTXUNhbCh35Y1QcNjMDsKD2a49ULvs2+pRadV1RzV+JrGo4JzvE3DersRhYdnGzrAJsbQKU7eDlJ1WqkyrjMf0g0YD5Ak4TXZxKbnL/blzX+2OSzon4Czpu+5UUjgsC+H6hPvODSXTqushm9MSIaq9nD9SgGiQUnYKTgYjN4xRiOeKCTQUzPbMFSaC1m0lSGAWcJrMc5qzXg8wqsYeTl7Nvm5Z7w0fSpMHyhnAFZrQOQ/6LF//xAAsEAEAAgECBAQGAwEBAAAAAAABABEhMUEQUWFxIIGRoUBQscHR8DBg4fHA/9oACAEBAAE/If8Ay8rtXbyJvh3aje1ITc9FCnqtLlIZ0f6mtFsbdRAaCGFfgyG+sd4eANI/1E0bXpHEdecS3rKeIWBYy2du/wD08W0omeu9OkHclHb3eFk1liVxYso23yGVgVgeT/Tk01/iluW02mswcBNUXpePBugJBvPxP6c25l/Qgg/NMlWCEMzbeK0YUGkjB0UL/pnS5T90ZjwcStEUdXgRygM9+GjOtBGf8Rf0xV2IcfQ+keEzniTGk1BfD6UdLCQGh7n9MF9iO26Ppwtcl5Yo5cICs8GrfD9Tp/TOpSnMKq9JkY9paMOWMKqyZp40vesrQxRzE7zf9HbAA5zWEdgiPdP9Fytw+hKXaJvsrAUFLLa+NsRNfFdprErOWYTkQ4897v6Mg5hdiZr3nQ7eB6xzMO9H1caVuVtevgzg5FcNEEijL0uoh+UFCA4UTp8H8zEKdar+bK2lc+SYIxK2+K26k6kDftHvxVeDesISPyL3OA2gHAlpoBCUb4xsEPaPuQgVY/yIOdVzmofNrLHdT7fNcUasHKPGoRazGGngpbyoDh34qUoazrlB9WPzP0ilbMdpmS3rlrAWi3olOTSLwCbjMnlfkdoRJa0/jp0cqeqA0O7vpEEVY3zmRH7D5moFukdEmV1RWJLwJrGxLi3vACO8YW7V8kEd+HNq/bpO4eE0wRysYaUGAl3qTMTcO7l4z/VGW6bdZn2k1OXX3IjfRbo33iKN7eDlzJgjHVtB15MZ3Uer8RAEbPmWcN8vaUvfKBRuz153zYZo8evmWfAllun2ldgHlJXoc4flFRLug8VhYd5SdW8ukVo3dd3J5zA2lP38FGO3oMrFc11sudcoK4TRvQqd/ApEs+m9FlXea5VR/RZbsXMY9ZXgOnzC77QFNml5QQxAjjJBnjRUZjMvAZGag5rnMIVpHKHEW2/HeVs6dJ5E/wAotnSMawwc+aZQgs4M9IaXQ7SnRbXIvEB5CdSZ5zzlsOZDmnlRGB9mPvIAyvKBbzQ1n4gC1Z8u1nNsxMyTBEWkrhvBjxWo3E0U/beAAaGJgvBZo1HUgIhQ08ngaJLsf2b4A3eydI27+f2QLZ0T7CCRDymHrFv8jwyajMkfOOyEFsfb5ZqS/DOZhXkTTNHENYCtENw8F2C4L4/fP8DlTEGtPb8+BvZhKYu8ErrSCwAjPK6d4DBoggCv5zEo823/ALjQYfb5YtfhIrhR7ce+MM4wd7+AlPKBWaGeGl4xoSOWr8joxLKlpNevbTnZKesotazzGKnwQrD7JABkHxqGrAOfXmpHzgjp8hPQARawZSUt6zMhd48cLXV8BKFjZ8oleNd6aAnBAJLC3IeSYJrt3hQ4KnXdncNvgyYLHCQK3mefJ4d5toyzIMd8/RF/IAIJD7BTKd4BFS861juTLYfH3OkdjKjyZV1o2CZjZV1i3Ht4KwdJeIpJ2pPXjOZRnwuhvMxFl/NL87+0xMC3+EA9BXJgk7HwoobXvcyBp4XwAKUExNW908ucsKq82svRyxbFrVlOvqROh6yn3IbPMen+ob0X449OCJvTb8yzLqcCVsPsMREaeKkJixVwqNvQ8vDpmj4soU+ndEewxyGaWcr4YweYZHmiFzsnceG5LawaAGg2ivaUZCPfXx8orvubj0gGw8p+lTdicmBtOWbPLk/XX4+quPY5yyyw+BwSIavCfJ378asCKbxTV8eP8g+88x+HE0W6PqfSGV2JxND+h3SwjzHQ7QzXPhyCYENjR6MIUrAdT45SVjrL7y/5+PLiIqGZUhrDQ6ODr+Deso/1JExYfPA227XaL9gFYjqOY+EZZ1IeTcM8ECUGvtkHEUe7Aox43hIg/sJh+3x7IOzygn6S8UKnKYzOkyGGi6H8YC2yKWA6HI+IoXMSXO5X2l70Gg9h+YIAoNDgoasUpsg8DoR8GtA9hdjj8fIOQijWXyXvnYy7olWJxDUxtMODpxXeYlOf4ErdHPZAqcXgjhlouoHwW0yXbgl9C3th9h9z4P20pwEDs/5hIAV7TU/QMrHGNfVl+pXVc0olOU6SHHXA9T9Mx2Xp8djGWII6gAAgI7MVZbXW/iNquro+cucOOk31HnM9ROtCLB5R23Q4gIKa8SAt2lRDyHLNqRe25Mtx0FL61zkn0AuYTK6dv1ZfEnKc9Gt8sqpNL0HeDDzgb/A63aV9ApaxJHaua9iZvXcsrADT+A5MwbuJHd+tR7/Gqi5Qv4Y4m8oyBOSS0R8jPomh+y2myPbMF0m1vzU0HErXx31Is9DeNDkrSWYTZ17OkD2BqZZawvLfVh8QNAi9D5WX0l3ZBGMmixXZl1q5XVyf5XTGsr7F0V9YXtd+/bhoZqW03R6s3qA3Y6Bbpgm13EPsJIDzHqeIUI/VDVWwe78bhXpLtY6spmSKdeFjjM7szINB4vA8afshuLbcYqi5Hoxq7kwckqNYOV0IvRk6ilJY2iBrTYMQ0gTJXNRUF+mP5QaAckuFa03jSAXbpl68Brso/eOHKBs8oAGCj+AWDhumn9mfjdQ3iBp0g3lRONyWcNP1JQmGjjt8XRMliai3u54Z5xh5sNIDontpA6w3qv5nnL5HfkFg7SRF3wRtRq9mHyCd/wDnB0sMoVxcCF1v4Lh0r5fdlojumPoQojA7vUAGDRL8AEyKXsy/4cjwENTzb3fjLlc9jEgQtKyPhrbcQJWhleOFzz8Qd6R2mIIx8pPt/wC8J65ODq/pFI0qnCuDc8OJ/v7RYo9+NhxYwG9yeXR1hwQcxFK+h6foQq3TehqLFVuYe3KL0CjQsMEt/wAE07XQ1VwUS6YVXNKT1Uw9N+LoBDcgUY04aNmXIPd8Yq8j6zUTZwDTLjiRNfAPVMh0eNeTw/pG3FFrp5xrFghq5vEcei0EYYg1ZeVwdEf7H6y4zMSKo/RBYqVDaBq4lq0aYrBruMTdrzsEF8BQ3Spym+sY+7yamEfbfXKEXqtqWK65LWgNQ0cy6gCzTbpH93Q8byVcPR4LBvT9IB2gY+MopyhsrqDNkODwYZR6PAdUVCG361Z14OSdm8cG40UnOtYvFhZOtQ9mkcgYL8/AGVvQhCtE8+DKK0mmsDJXxwQpXleX7TAFiavWawXCVlwUNhly1OzpsSgg6Mf1ENdVmoQ39ZdkyoDQV+RmnIJ9P8/gGtJX68XVd8PV+N6kFSj/AG5JneOZ3i+ECtRRNPhbZ+SGRvt4YZ1xAo7nEZHDEi15SglO0Z/fFbdoqAdqiUV0NtRixPQaDhUir0itxjDvzcCMLlGuZEM1SXzC9uF1gdp129jHFAWyzuTKOPr6M/7wBKyMuXX9zwdjQg2MRYOr/IMuQz6H+/HXDp/cTOkWrwFx8DtBSiPA4BLjeLnoW8+XFK3c0AlqAjFRZtWcTITn6ItaQiQqRlBq33d9dv2ger4H5AlrFO1E841b+Q4ZoboejehB6loDbitFwBdkLaCGWhwXlvuxe9QZrcfoOFVsj7wiGo/ZKxuGeePvNLw/U8/4RyeGcdmYfX44hhSO8rqcnlDeEGXNWKGvh7IRAbiK89pykN6lwFpfPTs4EyAc2P3gWj8zKr9CuUuRyXlBJNEuJbS3XjRD+5EvphH1ilHzC3q8NEaKHeJ6ye3UwDCoLGiCWhwTXAh7+DUZeXkTW8WugmDrQI0ffywfvUFcBn9yv+ATQ4k2mb7qy/Hr5+/KmybHiqbguHFE2nfni6DcJVXWsygsdYnlNke8KfZz0IENN5EwtG9YSAQdGXE19xp/A6TwCjaHm+sUM+nmsu55vaBfoZ+YjkuXL89oNmOFlbtht5GNUdQ46xveFus6x6wDZqLboRD+BNn2IgWl3ub1gorgw3evoB48j4Fhf/HyAAbCmEVzx9tg8vDoRWqZZ4dgJo9po0id/DnRVpiSXQ3nx3hBmz8paGbvR8bqGjnu5Mzb8CWJ0eCAgsYy/wCbtwAYWy3hevdX6N5qHvOGDSfb6hLRCvM/PFozqrBVs6L0/lBkAoGxwtfZcZO5Xnnx6HgV+3Q+Qt7TqR+h0X6pKa25Smr24i5iLOnDV9JsHzmq10N4pdPuefjIbvK07iV2DyBL6PEOi1EmgO8yXm50h9LOplq+rN+iXL8ofIxoxDXC8EboJW0q9o5EmEZYv6A0x0Yc3Jt+6i+8MGnP/hD0JXKd2pAuHdIHl39oKANDxGWoKONdEAor5E51lzzx0Pcl8Idc9Jdukby+bNVuVzpZ0t3lg055I1EGXScoe1bmc1bLWl9I2qGfHXL1PKlBPSfej6swbeU5wW8fRggq8z7ZtOXCznxrK4aDUmAdpvK5veXYlbT4WGIk1mTDEAULucPmNYlqfFVlxAKxbFr8mZs+owy/phaSrB3X+oNr23+o+vT9CAUQg3UanOXz3a/YfxIxtvzdGFbcF+p4So7D95dWmPssUPaK7QLzS5KnvDQPnHpLQWQl+UXBz3+3Db8CpKTaP0og5O8mErjJ1HeUrNfA+kh5OeK1ll/p8toYzMmOf4yhHqAQSfKf0INljjiurb7fbxUGwzGS6fl3gAGgeCA74lm/CE8ZOcbncGUVrblflHQasy+0MDh0Tkzc4Nz0eADWL2fLnM5t+fNy/kbmTnK70OugxUd3MTOkSnUbf1zFWhehBp+TtHI8iH2nstb9I+B/o4gI5Esh+W+KrwTDoERqD3iJGW3ueOP3oPKMJ0gDdcXSwDeWzFdW8VdfmB42peG/Vd4Iljj+O5vTqPJjAi/UGYhZXno6MFH9q8Vh1gsNX9DHg0InMzrzCsD+zbCiHkPAE+QcMcX6rbq43FdjdgAVfo8/mawybMcjrfp2YoXcrGALVn8WMP6IwW5u4KnP6XA+wJR9ugf2KHoli5Jnbu+sKasOdiDZPq3XAvMBA3H64PeUDjgkzc3gZkTZg9bCwD1mgNHSLu83382fjepH0njZ6S9n1iX9RZHtMJf5OsE0R8WgukqIz+CZ7qWeUGppMIXztfBZQbIb03ykyHX1B+wcqQ49/mY8nnVyh71FYPF9TW15X9ZRHLu5m3z+r1nr9JE4+6WP6rIaPPP8kB2OFQGxHk8GrWs03KWz9iZz8/C1bVXFyO1zAuTDhGGPNeiZ0OlwNBExMA5Y4iw/5Y/EImgD3f6ITQJ1Ihbc5VLmLkufWBcjzeqM0n9CdIsd/CgiJidHddpjFtqvOKn1+g/2HJx6v/bi7xqTIzr/AEcN3O3pwGgaKY6vYT63jOqSmPrPNmsS+AK5o9+Ksmq9iLqmf6MtFuhGJZq7RAabYkUUsXeB+2xqXfe4IjXEu3J1CIbxkwqXBvStsMewcEQNQVnIlHteYhG0UJMgE7UIFFGn9GKW0vo3iJaAQLszwAmZkrrQakHadhpEBhXrYgv34XWXNM0Tb30xB43Lbrlvxu4abAbHUOxHQl+nZ9JWmi/QJgKmq5L+iKGrE2k3A1BlAsCFw7fVhU3xcPHBhVaWMZy4FPcxN0POs2V7FTlxUecLSBHA2F6ygtcajYIe6HvKkKOTZ2frE9Ydk6T+hjBHTOrPQzo9I8HTQ5fafahR+jGGQainlLoN8xcMzxGZdGl18+IIaDby/wBrwAA6wCGq5+4xYa9dukG69bSUH1PD0gNLNgD8kvxkwnL+gBpoIVVbgOzlENKEZ9eDZ5zJU2XnsZt5mGVkLBcPqS1L142eyXG0HyGaZ0gu8IbkXyD/AHwAy9ZcTWqhAugnpNf5ka+tS5N2ZklzqlzZXkJg/HSbYORBZ8/YDS3sMxwNnKe1xABEC/dWnvFUylz9mZvqno5+/guYbG5GsfrBHxLajqzSCFeBYJzvI+/2lCtX6ZjtSylqfWYb0JQRb2qDMbvDtr8/qnq/WG2d2ZoFBtKLB5MOa1D3RxcAd6TpSXcgrwKZouxvyRz5Nu7TwHg63i/dP6wVDa4uFlq/m1TTBesyAzkiFm6w9OL6P+/P1+51lw0IlgzPxk9rFw2ig/O4msxB4NRH1kufvP2nt4FoZ7kFOydjBFXoS4hzibfh5KCAW6TvYvzT5/1ueUwDqayi5ZGXk1AipyhDR0Sotz9m04g0ZUAtfKBuN2TN+kw7bqFhHQFYHTnLyep5jlKB+ENdIvOPrQ9BCiMHVOZabh9bhAm8CoMwluMC1Inb/V+f6KJU1T7OR+ZSyHaY8HrasvygdXhdazQWXRcw1gBu+zLVLK028K6d5bxk5lhcqapHyOkpcb6wy9M/sckXU2Qdj94rxobG4cecsxxZaYVZ0m9GUc92GUo8nHHLf+kXAdhNpR1HIJome31s0Dz+gUXic67Aua4ecPtNB7pg/wCGgG7PVftAFCiMztak0ZsCZgppzMdiViUglzJA8q/+UCIG0Snai3JDSd+cHFqwNPPMEQ1nDe0D2HyS9iEjoMSmCOsD6AOPSeiNEgg/U/EowfodIYfKmv1mHjm7v9KpyIA2PCJQnUntDh/4WL//2gAMAwEAAgADAAAAEPPPPPPPPPPPPPPPPPPPPPPPPPPPPPPPPPPPPPPPPPPPPPPPPPPPPPPPPPPPPPPPPPPPPPPPPPPPPPPPPPPPPPPPPPPPPPPPPPPPPPPPPPPPPPPPPPPPPPPPPPPPPPPPPPPPPPPPPPPPPPPPPPPPPPPPPPPPPPPPPPPPPPPPPPPPPPPPPPPPPPPPPPPPPPPPPPPPPPPPPPPPPPPPPPPPPPPPPPPPPPPPPPPPPPPPPPPPPPPPPPPPPPPPPPPPPPPPPPPPPPPPPPPPPPPPPPPPPPPPPPPPPPPPPPPPPPPPPPPPPPPPPPPPPPPPPPPPPPPPPPPPPPPPPPPPPPPPPPPPPPPPPPPPPPPPPPPPPPPPPPPPPPPPPPPPPPPPPPPPPPPPPPPPPPPPPPPPPPPPPPPPPPPPPPPPPPPPPPPPPPPPPPPPPPPPPPPPPPPPPPPPPPPPPPPPPPPPPPPPPPPPPPPPPPPPPPPPPPPPPPPPPPPPPPPPPPPPPPPPPPPPPPPPPPPPPPPPPPPPPPPPPPPPPPPPPPPPPPPPPPPPPPPPPPPPPPPPPPPPPPPPPPPPPPPPPPPPPPPPPPPPPPPPPPPPPPPPPPPPPPPPPPPPPPPPPPPPPPPPPPPPPPPPPPPPPPPPPPPPPPPPPPPPPPPPPPPPPPPPPPPPPPPPPPPPPPPPPPPPPPPPPPPPPPPPPPPPPPPPPPPPPPPPPPPPPPPPPPPPPPPPPPPPPPPPPPPPPPPPPPPPPPPPPPPPPPPPPPPPPPPPPPPPPPPPPPPPPPPPPPPPPPPPPPPPPPPPPPPPPPPPPPPPPPPPPPPPPPPPPPPPPPPPPPPPPPPPPPPPPPPPPPPPPPPPPPPPPPPPPPPPPPPPPPPPPPPPPPPPPPPPPPPPPPPPPPPPPPPPPPPPPPPPPPPPPPPPPPPPPPPPPPPPPPPPPPPPPPPPPPPPPPPPPPPPPPPPPPPPPPPPPPPPPPPPPPPPPPPPPPPPPPPPPPPPPPPPPPPPPPPPPPPPPPPPPPPPPPPPPPPPPPPPPPPPPPPPPPPPPPPPPPPPPPPPPPPPPPPPPPPPPPPPPPPPPPPPPPPPPPPPPPPPPPPPPPPPPPPPPPPPPPPPPPPPPPPPPPPPPPPPPPPPPPPPPPPPPPPPPPPPPPPPPPPPPPPPPPPPPPPPPPPPPPPPPPPPPPPPPPPPPPPPPPPPPPPPPPPPPPPPPPPPPPPPPPPPPPPPPPPPPPPPPPPPPPPPPPPPPPPPPPPPPPPPPPPPPPPPPPPPPPPPPPPPPPPPPPPPPPPPPPPPPPPPPPPPPPPPPPPPPPPPPPPPPPPPPPPPPPPPPPPPPPPPPPPPPPPPPPPPPPPPPPPPPPPPPPPPPPPPPPPPPPPPPPPPPPPPPPPPPPPPPPPPPPPPPPPPPPPPPPPPvC1fvPPPPPPPPPPPPPPPPPPPPPPPPPPPPPPPPPPPPPPPs1bP5n/PPPPPPPPPPPPPPPPPPPPPPPPPPPPPPPPPPPPPJ2buxwC/vPPPPPPPPPPPPPPPPPPPPPPPPPPPPPPPPPPPPPGZniYwlvPPPPPPPPPPPPPPPPPPPPPPPPPPPPPPPPPPPPIEmeChjNvPPPPPPPPPPPPPPPPPPPPPPPPPPPPPPPPPIPAdgaqSyLPfPPPPPNvPPPPPPPPPPPPPPPPPPPPPPPPPKiEFkR1cKQ7K/vPPPK6dvPPPPPPPPPPPPPPPPPPPPPPPKtYFoKoWmf7YS9/OdURBFu/PPPPPPPPPPPPPPPPPPPPPPOvEMr9Nsl/aYfJNaK1372+H/vPPPPPPPPPPPPPPPPPPPPPUlt+F1guvbQRfAb//AP8A/wD/AP8Ax88865888888888888888881E/TCLPB9pV5DZ/8A/wD/AP8A/wD/ALS+gaVMW88888888888888uSE2gOfjKe9pZIx//AP8A/wD/AP8A/wDYRJK14R1888888888888889KDJ7/F9/8Aael8Hf8A/wD/AP8A/wD/AK5sGffUn/PPPPPPPPPPPPPOyCgAh4UvffWP889//wD/AP8A+8/8+dTXUofPPPPPPPPPPPPPDXJuzLx0vfRlMD7Qv/8A/wD/AP5CG6effStPPPPPPPPPPPPPOoslLHGlgvfantlDswAkbkVJx0nfeWJNvPPPPPPPPPPPPLXrBS9viBf/AHxAY7p/jyyliljXb3323v8A8888888888888+Ztb8sp3hEDI/VpnzSBfkS7cif999/Xd88888888888888I08W67sK5jo3dQ8PdNpe9RTr+99mM5d88888888888888uC7+mlS88vJff/3n5NlHViZNd99d/I8888888888888888s/3GBq8888aO2+vvnT7Cybde5gU59888888888888888888888p88888qnLplFItwjwsNBcQ88888888888888888888888+I88888IcHxaev7o/8AGdR/PPPPPPPPPPPPPPPPPPPPPPPPPLPGMPKDJ7yJ9C/aXPPPPPPPPPPPPPPPPPPPPPPPPPPPPPPPPPPDuC9+xAHXu3PPPPPPPPPPPPPPPPPPPPPPPPPPPPPPPPPPMIkm84EPuwnPPPPPPPPPPPPPPPPPPPPPPPPPPPPPPPPIPVjUeXDP0HD+vPPPPPPPPPPPPPPPPPPPPPPPPPPPPPPP1qnV78BjO/lAjvfPPPPPPPPPPPPPPPPPPPPPPPPPPPPPPWjk+Gw+E79Zl5lfPPPPPPPPPPPPPPPPPPPPPPPPPPPPPP8AtUn0RXpUWzRUvfzzzzzzzzzzzzzzzzzzzzzzzzzzzzzzx/w69339sV6z2zzzzzzzzzzzzzzzzzzzzzzzzzzzzzzzzzzzzzzzzzzzzzzzzzzzzzzzzzzzzzzzzzzzzzzzzzzzzzzzzzzzzzzzzzzzzzzzzzzzzzzzzzzzzzzzzzzzzzzzzzzzzzzzzzzzzzzzzzzzzzzzzzzzzzzzzzzzzzzzzzzzzzzzzzzzzzzzzzzzzzzzzzzzzzzzzzzzzzzzzzzzzzzzzzzzzzzzzzzzzzzzzzzzzzzzzzzzzzzzzzzzzzzzzzzzzzzzzzzzzzzzzzzzzzzzzzzzzzzzzzzzzzzzzzzzzzzzzzzzzzzzzzzzzzzzzzzzzzzzzzzzzzzzzzzzzzzzzzzzzzzzzzzzzzzzzzzzzzzzzzzzzzzzzzzzzzzzzzzzzzzzzzzzzzzzzzzzzzzzzzzzzzzzzzzzzzzzzzzzzzzzzzzzzzzzzzzzzzzzzzzzzzzzzzzzzzzzzzzzzzzzzzzzzzzzzzzzzzzzzzzzzzzzzzzzzzzzzzzzzzzzzzzzzzzzzzzzzzzzzzzzzzzzzzzzzzzzzzzzzzzzzzzzzzzzzzzzzzzzzzzzzzzzzzzzzzzzzzzzzzzzzzzzzzzzzzzzzzzzzzzzzzzzzzzzzzzzzzzzzzzzzzzzzzzzzzzzzzzzzzzzzzzzzzzzzzzzzzzzzzzzzzzzzzzzzzzzzzzzzzzzzzzzzzzzzzzzzzzzzzzzzzzzzzzzzzzzzzzzzzzzzzzzzzzzzzzzzzzzzzzzzzzzzzzzzzzzzzzzzzzzzzzzzzzzzzzzzzzzzzzzzzzzzzzzzzzzzzzzzzzzzzzzzzzzzzzzzzzzzzzzzzzzzzzzzzzzzzzzzzzzzzzzzzzzzzzzzzzzzzzzzzzzzzzzzzzzzzzzzzzzzzzzzzzzzzzzzzzzzzzzzzzzzzzzzzzzzzzzzzzzzzzzzzzzzzzzzzzzzzzzzzzzzzzzzzzzzzzzzzzzzzzzzzzzzzzzzzzzzzzzzzzzzzzzzzzzzzzzzzzzzzzzzzzzzzzzzzzzzzzzzzzzzzzzzzzzzzzzzzzzzzzzzzzzzzzzzzzzzzzzzzzzzzzzzzzzzzzzzzzzzzzzzzzzzzzzzzzzzzzzzzzzzzzzzzzzzzzzzzzzzzzzzzzzzzzzzzzzzz//xAAiEQEBAQACAgMBAQADAAAAAAABABEhMRAgMEBBUFFhcaD/2gAIAQMBAT8Q/wDL8DaEn8IP6Sc0/kBzdssrkx8IUZFP44/rZlrFGVeJtiJjn8b8gVhzmWssYl4lyXf+N/qxZgbzYXiGs4bv/D4NZcMsnONsaNslHEX+iXPu/bfgleG/PJjjaNuRFZVAcIikJ5iI4+8Ijj9njuJTjfML1u+ZRtw6lWRZXPgWG/F4E9SvcPu5AkW/JJ2+zcgInuwePC0y2cThrL0OGTGNvh+QXS222XZB7geYmsfrca2XphlC68JOFgPVkPEFvwCNLryC9Wvo5plsxnFsQwa5cYbJPU349GwK4ScvAMLsPoccdI5yfsOQdpAYcdtqvhSefQPjM43U2y75AYyaz5zHhmVr4E1HhvyPQNfAfGuS76Fhr5w1ySGNybNbay/fhOfQMu4JH4l31DmHG/PwSOw/kiMEsnuXyHMsZ3C+xuR4ILjv4H2Dn54NbiRqwhzmVe7hzDpI+hZ4YejtnHuDj88eBIYNm8kmeH0DYJ/M7EcENygZf935ceWeTqGmXMLJ9QyD8m6ozwuYn0HfC6PmHHbdsy8eA5sSSXEl+cwHkfV+Nv62H1eMs/fD4GJ/zLiJ9mnz+DGW1e4B1ZvVtwWjLhus6lOJYy7kExgDr0JBxkjduTOiXXEdS8+Q2CWGy135xR0gMieCAVy1cY1x4EQjD6PoBxhDrqxQITxb54eMTH0lO4DKSDqeOzr0xcYZY7nysPOeGdpO8jgSZdwQQHm0a/WDGeydoRNIT5fApDZ+5TqIweB4Eq1+uOXH/eUd+rXi3nPl/wBgsuI+kj5hfW+2UsvZY+r/AIMsjDywcX7ln5HIBhHD+EMu4uo8vEcvg87/AAub/DzPB49AMn/ZORA0e7v+DzE4sGSR4GOTwuWbwt9n+CHH2UCzvJct8Pfg68KGAjZilx33yNA4saYtlxEILPCy/LhGJ4jj+/gzGub73dwFkN6t4OPnhocbTrx05O01f4Dsl2Uta7s3aGzha3f2AZyt2ha7sBdNdt/4df/EACIRAQEBAAMAAgMBAQEBAAAAAAEAERAhMSBBMEBQUWGgcf/aAAgBAgEBPxD/AMvy5L+oYLfQ/wAhQ7bS16w9Rqwu7H+Om2W73RbZjsdm/wAZ9y4T35DCzqDJvP8AG9zqDJEMu87lyHe7z/D3eiP92fqz743uZQk2IdfMf28gHnAH7k0yOnHgorEuyQcgiafHDgOm/tJuF0LqBhA33Euey62cGMl97hQ9hPJaW+xMOm8T9g9y62Q4PYB5YQfUHwRYcdIHaeJZZxncKeX0QdP1tb1AydxBntnAE7lrHnw2SWD8GzH4aFj/AH9F/wBvuFvcO7Bnovp/Neo/FuZLnbCdEsu+ADr+dN6u3VkvpD13Jp3ZwOMy345+LZssBXYM4YdaS0386fZaXTENxwzvjOXgZ/EHcdfBtjPzrnbCeyM9vFiW2w/B74XIfxFtvL5Lv87t6k7hTuHk1ODlbZSjfEB0zevmZMfF/PL1BW3JbJvUGS3qR3GOVgutjrhwe1QRZCeiD2l6x42PgsvcfzPF6yQl+rLL7IY4fYTZ4GaFMEx/vDnqP7Gcw/XBz7JnAffzJplmWtgThclpwTHI6hhkMMg/7ffeT/LYHk4OpqOw7n2PgvBz877CPJP84ecDuxdTA+vb7uRS3jbeBvZCWT/7xgk7jlbYNchhn50HqUrrhJT7sDSQd8IMuSY85yxbbOdE6dZT8V437fpA+SVqNx2yMfDTsk7skzlgkvOGBzYeNJ7nUMM/WVW/I/Eo6mGe7OUsLVAMWy29me2Dx+um3cA/Ent665Oe5F7g4Beyw7f20No8bRf9wGRl9cjbLDeJISXt/CQ2HwFqs9cPY/tef4ezhwZJYFoS7wXRtPC8/gnDE6bFtsn1JnB3Z33B6BH/AAGTZd7hPIvOuCw9l5L3L9S1bG/wLq6+oO4d8HsvXISZ3N1P99kyQceDJ1Zb3bj2Cxs2DIt0H8AfUBAWHlp5CdthmWr1Ye2HkpI/8Owf/8QALBABAAICAQMDAwMFAQEAAAAAAQARITFBUWFxgZGhELHBIEDRMFBg4fDxwP/aAAgBAQABPxD/AOXlvCrhBa9CNSkS8UkDGa/8ZYijo/lg/GdiPKYhfqVZXZ6P+JgiAfeNpbSA1frCkI8H52wFOGrrNeY9XmMQzYN7x8JFI5VVoXUaT5l2R2b5beesxWOdP+IFQbLDfv2j9Ki2mvHaGbuRYx4gYM+fp1mfSd2Fml+0AwDHZM47wE8ReIOF6/4evGBju9PN4jaLZYvT/TfeLVFozEoU9xA8rMFl46w2R1YMokUF3XzcxkNGPqSTUNijPr0Y6E7B0NU/4cy2KvWeD65qMqf9o95RGWEWf/ZXbziFhNczF15gBvCn+Lh9SEqGRrEKApreg2f9n/DVAV0WxfDHPXAHuRFlDa9YGxW5ZhFMsYtq0cSyZV9pshMzTkb8fQIxyU+8uQEA4BiPWQvUS/z/AIZQiWozWiU1ui48vzGBOOfSAo6LCKhVm9wUp4zGrd/odqNDVmLldhkBivoz05fZYxXW5yGL8pM+3+GKweZ74mBaDPQS4vHyytsXsIOMxUN+kdX0C5tvrCJQpE1UUFKa6H0fwEFMsEU61NrxHijXy/4ZUg6/bMAZw/YSxc4B9ow2box3qLwc36Sgbd6jUl5vMqNd3ReqjlsOfHb65UAe3Ny2FSUFk29pxNH4P8Kw6ZzFGBRavhiW2BWepK+ITEQSoJl6QDFwjKxKK5ZRAsszqIlVvx2h9DcpQxcDRWTXiWqttIljj+gGff8AwcSDWq1Am9YM1+U7xgN/Qd1l9o0tUwiC/TEalXH/AA4je6ylCu/hZc4FwIyMe5Cq7R3jcNQt6O8eEperNw+vO52jqE0G63By3RnLKKO1fv8AzBrDbXhX+DUFMLMX9e/yzQrcU8ANV7s7VisdpjiZNXZEraWurcAKQTTANSe3dHncNRjOCGavrHQR0eYS41qDEZRny+tYJWLgxna8GocJi2js+syLPJe5WT2hiwxnIvGcjaS96t3yVn3v+tcVNnnga+6RqkXI8f3a3Za6Tp5giRXJi3vzfViPIqr5fp5g57/RigsIeuK8YpgHwindDDfrLOk5O0oLX5jXxAJEtXHodWPKzZcH1XBz1qAhYzRv12ve48zXuQ5aYCQFmYFC/AAmchhLg7VQTAmKOx+IHQViN3fR/qXa8PuFa9yCstdXkJh6DCGAol1kVR33/dW6hV2itAV3rd8sCKI2Oca+meY8iC3MNE0s7XD6pDW5rjp9KfvCWIC67zicwxwVTxEaBb4g+8pk/mANFyr/AOb7S4HXr9iZFgw9Q40TuOT3hQzYA5eeSMBBRZm8dYtQCAM3+I+JyWWpdOX7Id4Aobsej/TLOiOLXIHJpvtUIGszBEZy63jwxEfRkZEN6zCxAIjq/wA8f3NkgAtZicmjdV1jUBYynECyUrUHMoesUwxxBqFDGYipt+3T6Yly2fkJwmcPDzFjgMjoN+3zCMB6cxumo9a6ZWA69j6XDdNsEbW1bcv1qIkrrJWyJmlze79OUvZxApIiWJyPfmHCApAbHFN4SEGTq5bHLem6/XYj63RiWftkPGJYaZ0ot5GWt23WQ0LLUAeA4T56TGOqwszbsz6S8vAqUbjjQ711qPrHXIr8IezvBJJSN3vp/cqUM+hEYqlfd0jUo4zn1jBgyyzT+EwPQuJYOxqE8GeIwIUva5fjp+IyoBd8NPLqSvN1hMU9Q5OjLGF9tV7Xz6yooAdjl6t3feYs9D9VxYawio2/IbrefTk746RQQa57kpUFTpr1brCiPMQ4XxRf6EFEpnrwZl+XCp5FaIMNG7uXWtelQCKBgsIDalYAZv3ja0sAS2umG4Ul7txT2zCuSjhI9tV2m8SjB59vS4ALrVhv8Kgd/LFD/cKc2A1xsnURfcIqBofLKAAy/MYyOszyK68ygpVP0zeIBpSUJySoq3jtM8SgfRJaCkx0uicn2iGMtbKul6GvaKivBGVbu/rjrOfqaBRBQ1Yfveo9bba02n2OHzBHBZ9o81oAOz5C+0YEAYeEu4tCqYLW9QWgqOte+53+YmEpd/0j2nKtbI4ZUVsAO8W2vtLyVPrM3t7ylwtwWl94uACcx2XbjFQWsZCxO44iGU2ekrcS+X7Be93yhcCliI3/AG1qlelsqiv5hav4gyO7LPO1faFVu7xCKq3XeKlVb1qbvR/Swo5LZxRqO1jKro7eYAYGArVGvgiwXNQ+qBsXFUwtew8J6OI0oNXiT05JzBU6ezEXBg+AWhd7T0hnUEuUUZtce0Ss221Vm7v/AGItBq3EcnTv6QvL0A/7PfbLpAYe8u8odCV/Q+0FBBa57zcKb9DET1+8f7oo2Bm3ydoI30SvG7/tlqDdNTlYi+iMNVsp61cptyM0wvhbNSzVrepiHrCQquqNy7ID3/RcYAar7SyrHpBledEIzHq1+nzAAKNI1T2rUYPJBOb47ujqCNN/MBwah1El2j1xRh9vmFg7GoaARjNbuvRV6GYDN6wKDgjgDWWZW1c/1vRTuJT4DSZs4wuLWSbEpRw97w/2tmqsjehR+zEY5pIgvs+sTKh3uIsDZmfmmt7Si+sO0LpnmOvpy9ZcnQrxy4PW0hOA39y7+VhPnfiH6WJRNlNl35iZqtNy6j659IVzxLsxhcBy3zq+8Yse4FY1069CAI3sar9vvxwYh4DG2Z7fsG/SJ0uA3ZxQ80NcZiIArEzsu/10iALRbWZSiI5vSNB0SoEyG9U/2EqkAlfJhfMJGe9dnEyBotPmFIXta89okqsO+0YFTMby6nhjkI9LYfH0xDXBhV4yfTEYC7fiEN2OGGvqvSFyh1pfmbSPT/UbuiCOcZzV9zv3mVY7TxD54e+ZUK3MugyI8MN+lWaOPFih6SiJyxHLf7IbZ7GbEqmXRgN5yPJ2jjx+kELjFtF6BmA5oUFpW6Y6O4QVsuTvoEJBhxm35mKbHmxUSTS6t8SPEADBwHz7U75hsTnHXxw/vxEsq7mL2uC8TRd7HmVIuvuIQ3QYzvzGEZZj4pi7l7Tj7wlRhoGhbnggaAL306y5Nkcacr+5MkW0YPT6AFNI7xOXVyfooilo9UseswSzq8a9nV+195UvRpKpXRvI+ZVqW11ayuzKcaHqNV5uaN6nu7v3biqArR8fs8ckwCYDYCrO4++YkVkPhB+hcTWq1R5lwMmi4dhy76jIZHkLocB2lCicnaXRdHFSgoBzbFlB7U/EY+DFTAStP+zHw4FJSchopnpxuo8t6uMnXvdifvhvGm33NxN8ODqGvDWZZWK7c9OYKUmzUUMgzUUEoOwstq5QBE39GUM2YrhIqUQy38QzMeiAPvcW2+uZf0wmdczNDkH8fpYZABk0Bmhz52R4Bau2XH5vklDlpq0WsHTnyQ/agRHpXviLd5fq8td8qHYj9Cwk1fGD7RMCtvYHUbMa94UwQCADtNTZwCZ6RRfL2NrEQBaC+4cDupLPW8WA9GPhhmfAH4im6rj/AJmE15Qi36MuDC9x2hlVRXVYYQ0HLvXP79la9GHL7r+JUWAsp2JcO/0dnvEUADOikitWrrzRuH1WvSGoq7J8pv2qGo9VhJsVi5pkeMTAI+f03DTLIUQ41LR5Wmekob3k+suLzxBOP2l3S9Eyj6lqvMYEHkLfLt94WOMJF1bmArEpLp3q/G2BtMBbeBoO5lNzK5oFUFV9WWZMCOoDKnNaOToiYZeA99MPpizt++AUOgnCVKW227nI5uun7kvg4h9LTS++5UNuYKgqN2A4YLXIR7FRUN/Kl/RVrC4PWc/rGoHiyEKgYbA88n2jJAB6RDPqWkPT7Rq1fHOQ5Q44lKK5r7+M/MTTlVSFdbu74h+zM9xF2qfGe0QBHCWeGLQqaNzC9KZpPRXjp64hURFXlVu3lYYADH6mdjDZ6/8AkbSUsHAD4q3nz+/wHnIYWcnRuKW5Vdg6PetnMP8As3Ll/R2xpEvbPzAWgKLupew5dvlqUUaA8AfTWcWf0W0C5m8iVzApU9i6sF6PjP0a9ZU88ftCZr3wbJcALcuNhuLtcSLMW9OH0HWD5BQGv5eYVAGg5y1PCBDr2mgpfKV94VfOY+rLU8V+ZQpq2G3Ltb7P7ABRh8h1vg5vRC900cy45U0XVMxRYnY+078fQZSI4bR1HMzdvO4erk+8yYSqH4PorBo2eYlFhh+p4jhFy2qDz60estoB1GM18dogNmgW6Lx3qWJ0CuennZ1uA0TmAOZrX/TAKsbD7JZ1/Zcwxa/Zjv6e6Zo5Op2+IBwAABQOCAFqtG10AzMC32uvxofeoItc2v8A4D2g9D2wfidtjtMgtnX/AMgoovGs/R36QZulfeX0M2PNvQ9pm4bFvfr++Wnvd2vV6dXRHtP/AChfH/sLmyIDd/DFdPNS8mOrvqNz93n3gYqNoYslvzOV7l/1ygvyWJ1PfiF6ysrxKa5T3D6prKTmtQFDdNX+pAgGSvAcwRnUORU0d6zGllF6lVYPDrHpGxsq0LgDA/ZxHnZt27iYDvzuJ7Yy3PnR8witF2tXa9R3KVg/VW/iUH9LrJ4aTvQwuRCogelcf1v+6zp3+mR9V9oEgKIOA66iqLbWH7o768zKRUybXd/GCUgACHb9TMiNoe0DBV6C4/MbN17gCn1w/vQZaCUgxUF32vPLPV+gCabe8QL92t9mWaJtex8tHrDiuDNid82XGwd2qfcmOtcWw+Y80HSl9iXVIoB7pDUJ2wK95efOf0sJetXtdvj3h4hqocVVeKgVHdnrlrnK+GUSoQshwXk4vqYjCQjHWcdXrUNn9CADsRQVYvv7UzLIvVWa81uOGIoKp5TOPNR5u5y/k0dN1yQv4/qXGi6KF7g81Sqxf4dpgIzlL9Tp23C+YLLqJMFElbIB5G9GoFyiDAUESoV1U99E0ZHVDHpcrYPdE25yhj74g3Va/Qyipst9ZSp3HvAeg+M/ewJDFzi7SZraoKI0LUwRwI1zMasGdbnMSi8G+0VFuHmvpYjqH8SraBPDx73OWnH0wB235qGv0vSKYLgdAq3vR6RkXWEGcW9UXmJKdCcDheKCu1+swkoB7REzqeTgpxyXtYj3cioCrTo77mq2lihtOPSYgNA89hcdObh+nLFI2blYPT2gnlrXta/A+v8ASx9XOsUATuJUEPRXanQNPwwiEwEVYKsOM2x17xpF7Y6tWuDqyg3HKdk0fLbDwQYwfWh2Qxr9CkGdQKKOMHtDNfDMA4Pv/wB46t9YCwQVkdUKFksVGVmu8zE36Ts7+hLd0mYNQGj6NSFazEQEge7cOt/Q4dQ/SHXtM6aiJH3AW+WcQkQZU0ZPSjMHuog3Rl8tqx0nQ8Id/L3YDOiKraxV2Hn8wJeVmhbLzWr4giFGppjxFts5YbY9ex29nHZxBs8U+4o100nXtEgXUHZYxZQFPxFfBzR6w9fq0LUAyt6IjYKoUXYxvyzoJ6q53v8AiBAic6/v/uJG2Ld3KbPZII2bAHi+v0x6x1MlJKWwQrOjmtShydOJ+dfquPmMo1o81DU+QQdoN6/vLVxBDywuXdPxMQrTRAoSMtxsDpm99f0oF0YzBVbA3qswKxnZ0env9Kodx6Ru6dm/0/MQi1v2Zi9UF10lgeKl45TncoPvGryxR+4hOoUQqA60K15SV2IU1XeNFr0zKZkEoapHh8wDG0i62t64uXQAobaWcCTzFAKC6tq3tLuDyVFQqgBe4iZmgu246urBKb3p8q3fyRMLWlD3NPaXANwslxnI+0eGRWx21tdskzVKMUPR09/vB81dFWeg545jjuIlLqrZ25rc6kJBi5yt2pnTqB5Q5BBgdDQt1+f03KzHcYctK+0MigMH0sSrd+0VoZ+aX8/vLMbEnawSns1NxxcBRGJZUUOXMG7hagXcEsJf1rI3DCnA9yXidPzD6XuK89u/6Wkgw+oU+7OLoB94l7dzAwKPZVPhl/St15gMrXvgp+bltN38C39oUTbO0BsAC20gM6Dhde08MvrLczZYrtmAass55OUjOLQUOqRdAjhqrvtNh00Pr6RXRCh6SzjNbrUrMj6X89Y8znzLgSFL1yd7zE/XuqrlIossG+7qOagBNwL2YYur79OkfCzmOGZXvvkgY2EKQ2Pfk8d4t0Lkh8jsKfebGgoPl0HVwEfeJh5nrypi8HVFEcfen5f1gCAOsByyGTpOM/VDdG9lEJsh3VX7xqRyfSn8TNIemOZycRmPb6a43KdDWYjwqhWwth9OMTF3EiOOHMJUj2NDp3lwCDpMxKc2yPU/Q2t4Q9am561LlQiB9J5rFSqiLDw5/wBPeWCWx+iLZ9fiO2olrRMnsWQ7fDUc7t8rO7EaliLtaKPeDYBmuQWvurHnMLRgvmKBVQbb1CkJGsJj6XxcQmKsmIXO/wBsYrQKAVvxdg1yVzHnXWZoq885nb4iX2tldmLvpks18xDlBXysJxuvRhhCFJ1HiBrUoIrQ46lOKJdkNCq7FW4OuZavsEwzq2atcc9lwl5GW8IB85fr8xFeCag0OCZPz9GGZSwJ4D7TAY0FH7wkdMuNkBWywOor7TBG8LLMe0wCjnUxUM6DgjtmefpWm6hBsS/afP8AxHxL7jhepx4xUO1A2rhHJ5xHTBcDPEvLd3M6B9oSOB4jGKMq7cP4gmqozCbZrIzn0gyRWLQkHPtuxdujedDjUreCXuD0dPaWyrancOtc9EhLwXW8wTD44nMFNeKF36EYWlRXqOD7xulC0yZ3NalrCriMW1eff2zGF0DPNSsJgOWuY3xOFqrP51LlbRb4X8D6eYroAMxUzvLxTKKVYvIGw75ucwfAj+YQbnWuqy/aKQ6yNt99nHxMDaAQH4J2H8x/h/RtQObvxU5nJ5qcjpPHoZ/5n99XBLlfDA8pmo7G5rEqaYIFrTJg6ymafEbSrnicd5nn6CK+EmQkLzr9KhalDa4loAnIjE3RihVh57Ezz6xuMQgc1AcF9dyqdcF7fFZvtUSSUJlV04L495QXIY94RIoe8cBVrx0lAHhjYnSLEkhhj7Dys4hWQDZA5GXOnKeIl1NJAdQYTnYmsSwVio19g2w+t0LAdHl1HDUq1G6gGPV6rnn6V6wGWgt9IRCWps+YoSsyxuLcdMHKtXC97+YVmzkbxLIHoAmGCl117s7BLgsDeNr+TmXhiI7wI6nr42aQNOr+1xixjq/y/wBER4QfLNQUjoy+DMam2EDpuw65p8fvkpbKOpmnnURNoV0ja73cqGis95QZ0Rx5uF1G5aQKbK1PX645lnRwHfvEiusXwyiNWfdcbISm2DbuYpIcrdVVO6tV2uyCORKdO7gw2KoFVzepnzWhk8btdtQEenPF9g7e8cK2FeKaN/EQcRjsNRhBMdCEBuGPTUftqWrgorp4XJ7kZIVyr3asINC9fdI/JAoK6TW7Qq/Ng+8QQbrIhdCPFv2lAELeALgFNiniBxQuub8x5vmNyKT7Df4T0nn7yu7GAFiidS1e3LERWwlNcLeTBb4llUKx4Cse0Hi7sV0tfi0UHf8A8jLcIeoB17P6843XHeOlme2pWGLW3v8AS83AK9gherfWb+Onb99wjzGLvThswAOP/ZgUAsb4eR5h3+gDwGOANuM8QjAC1XiGoOKj+Z3ZjUYhbCdl/wDY+jA6bfHF3GSPsA+3SFIwcYr0yPFw8uxKcC86LPWBduZwJ04ccYZrkGG9hW4YQgnWyoT1xi+pa8cQRBEbLHqTH1qV9OzBmDS4qtxWnZsn+qVBZzk/EzGxmO7nVFaEMn3PQ75lqq0DvfgyvIQiUIliVkeb5JjiZnhZQo3f12PRjD22Kls0Nj8QC6JmmzUvIjWYHnSptPULL13PO7hzu1j1Oy/a+scQQuV6ofaVXLl6REe1A8HSAQ0YniVmZL9f9p+phFIXk1emdqx9USoXT4Z9tD2h+/E2wCXY7iQVhTq+bjoPpATIRMJz3nNfXPMQImLIBiqjLouqvU6QsnUXoExBeYvOB0SkFJmhx1B4/SwJFn+45O2SBRrR+0OIUA4FkfKdRz2IBkADsu847S+36rmdMQro1r2me9N4PQ9EJYBuSftFOYUQSIg2PDwwlds5TYHluvF14g2DnrGLkEwHhI8QYoaH+SuCbjYxmlixzd1BRBri/NsBYN5ZsExvKyu3x5yQAi6AAPapkiQoQ3WbNdaUHWV0h1VBx853mXBoAKuwH+pbdfZ4W1+Q/Uw0dI0r9Wqy4qb+x9MePX4/sJbMFM338zGx8NkTiv8AZDuxCtdR5HtHMCfQ9paHl/7EINsrD/uYTE2Dla/MXNRYK93xHCXEKp2XHx7QYQWTVF4Wntr9SWIhkpK3Edky9hofvEqI1swfR6nTdQAousN/9mG39OA76JX/AEwDqErxDPMs2RfK5nViX+hHtrO631rD3uNCDc6DoOL7IQumiCg6nCeqTnJCJGVexGVeZFs/h7Qp1oYiOKRwkfS1UctfSDxURAgYSPIYuDwQvSXUtR7R1QiAZGcDD5hOpdYAKBo6EaMAtwbo3TGIOXMWGhtNUtntRgEKAA6BivsfqCA20SgDofXLuSjsG66Y+YAAwFf2IAqiacXLRg3vfuYr5jXCRF9TY+YCechoejm4wQVfLBV5bPMdr7EN8Z1VEqV9B9zp3xKwFFBuh585gtB+Bk/ByvBATM1sQs+jiMuA1ffufrqSf344e3FS5xVvGTh21n0h1WHmdKeSY7rXappLeMy+A+TcNRsaO+Avq3MbtgPWY26jZRHSNVmAPK2zJ2TPpCQ2IVqzq99Xxz2l26JXzKI9LLTtCssbM89IbyysSp4hpBnDi4w2WYxfW4zAVdDxfSVIAmPVjXaynI0K9Cj1jqFN+5+l7REHTWD8wrH0QrAZ/giWG2DOg49vn+y4Smkn/R9GTMUeOAHanPzKoHOaX1qkSox6j94U2q9H2gye7MsLlf8Ae2KcCrLFerxglAHDMB0HR8v9IzWbVp7CSx51YT6mzpX0rse0xHnE0QPZtL+EwOHVp+P9wmt50F6ZfLBm7uE+5cWonJY+1ZJ6kAK5vjdV5fAsFiYs/jqMZgKTfShz7Q6p3ZHA4HitesOEgNNkxbz5g6r6MZQc3ZFDaslI0crWj+YTIgc1by9qte0xhGlcot8bv7QKTD5msPr9LiyepqMlC8ah0ZioQUxVr0iGJRcHfv8A22geSh1DZGaBgTv/AE3GnfAOHt1uAJTANfnbqavUKgK5EcfRrb6wCw2fWk+yFv1Vgz7S53OtwZILbr3/AOWLougOhFeK3DFAwBqg0egfRviI0Nl6WN0eqGkfeonsX2bmAUN0hUhXpqjXmIUtFt5tqPLb0MdZfitDmuXbjx7w+01Xs2k/jqZlTVhclam0AbXFG4VZe3R5gVoKPpeYDaKjNW9Gd/24URCkrWGIhUh0Wt2vFXkhSCJVWd/6YUUSgO/tLo5K/Y5HNWhfadukFcY4fMEZKR7XEu8j5UWyVTAFr6zRm6MD8D7kYoVzgPbL5i+BOPmqMRFGl1rzsHvFC4RO8rZaw5r89TO2s5/SJZFeK3NgozSzZntu/Bu/l4nJSgiOM+3qwKMBVUY19EDUgNlbqnlpemWDYKVyZu/uSiDf13JWSFQyi2nB9HT58TIJ9/7gcAPs9Tm+8JsWhjA6U5OsJiVkTp1/pk8sY2uQRiMZXmB32FUnb1hXc4SkNBkd41iUlxR2whVesx0+PpzOKgIWrA+D/wAjkRcHq1PTD9dtAvpNo564+85ACrQ/liTE5ay/6hc3NZQfYD5lVQ/I+uXj7cQAMVVUdvqe4NB5E1KlroQtL2cOqdViCJYmTDd33+mFdWjFToBlf+xGIkVZKtjPD8DXd/uQ7HpDr5itIW3MHc+CEg/ZvsdQADqHvx/SK/CB8D8D8Uy4wld9H+GEC6qV1p/EvEOgbxbz42vacA+FQT1xFJkutvtA8keREfnMoF631D/cEfhHkX+ZQGV7H8QGc0XIaFq0V6whENVVL6ZuLBVoKHbW3NWnEEESXwV6Xlx4PMAbPaC16ru+9r9BjFhB1Ci/dP0YKAIXZ6yo79Er1yDpmovoDKInhcPmiMXkqwq7cB7d7/uyA6aJv0lotGqrfRYD1JZpHvI21zTZfqTQqavAPwCO5TpA9HMJcZuka/UewvPGN+ZeRGRTd297uZObXaUn4j0CK6v/ANlf8GxQdBc12wSujK6txILEOB1UMe8vLIB53l7eWoJfA0a+Sr+GEnmgaYzWR4SYBxn7IQF0KijvnMqAEtO6ZrsQBEbLxzjf1rMR4K1pXqwo65liLYd0Cr8J6/39AwE7ly5v1yG/5+Z6cdgHo4PaJWKbycVzkfaA4WZv36ZfdgwV0Wc/Oqh2wCOwPop7kDuqQmoKHwcTWZbvZ/axhGifwf0oBUDxeBv7EV+xaqW8q9LQDpiWriIZYjWeKxZxWYGgMwMFGw1aDfiErMkfaAFR45gKHpzAo1d36Kfj6rpZA/Jz75JXRjsFpDFUh8J6f4IlXm0B9xjp+3c+a0+1Qsw2uoaBi65qUWsrCU3pi6NYYLGzCZiQ0P4UyemcQRhSDH8kN/oIkopN4eKl7TSjN+G/cgXUFr1Z5rp0LaOXcNg0T4GfwlqnVYR1qCgAbQ7FivrhNU093jv4jbcrI96Uv/B2GLRNtBy9DUNFRktxAoFlHStne8yiIWi4AX2w/wDssdZxPP1uXDWMpnPEYl6lhkO10e8Y3aqO3WIBtKqbque8dBtCdww7Z+u6gV55G+2KvrHQNUeFv7P+DE9AF32IWQ72GHpeXuQKQg8sdgC0lwyaXHg47RQHEVRTkcV8zAWXv8wBhvXMearzDs2e0UHQXLMD1kX8vR3jrHYNNeLm+W7z1hgoisW047cQbVai73RuNeRdFzT3FM9INhHCQyQB/wAd2IAvMoU2vR3fF48kdFANar/Bmm58FoMo9CG4AwOKT+I8mh4q6r6KwYZg6ZOrxuzxqDgUtlC76fliR1l+QM1Dyg8Er0cwKuPrXodPtCy0mGLK4OU5gVLfvZWBW9BADBjGI4y6IUWJXGYlwZEIZ1hBdlfzTGEXz5GbNVt14zUKZvQbXhM3/wBiW3Pkvmrperc3xj/BAFAO7UVBjiyaJKvFSqDKnO8vh79JeRpj4f4zITQoPJuFgdR3eZ6ylaKZVRhMcsJBYN4S3zKHzxL9UuD3R6HCxsbVduG3m0IXWA9wA/39L/QCrOLNyrVVw9bZZPoOV/iJQc+xo/EKMjq3VkDwj1hNi1F1U6HAf83E3N+jPxMJiq8/4E1AauqeDNekpSeGvCs7TznxD3t8mWn7wZSbInJ+3xcxiAyOKG16ObT1OxAtSrqh/ETrAMO8BKnA5+TmEZW03d+8a6XC9sH1st8y8Cc5PpkccZyZnpb9BzmwuroKyykaClftLWNt5WP5lCM2zYN2ptvRjXBbM5VlN23pr0pjWk7rAeV084iDLS0Tm6XyZroxC65WZR2/wDBE5cXdfllalKh3lgOtUvLriAXa4Fv4mgfgMlwTI94QwMUbrp70e5EdBZQuk58VvtAOlD2dFHHvFRwDXg+4zQKoX5r6jbyjpqIcO19GfF0xgWvDtBLrT1Y3FGvTCvi1en6NlGvms17xVrlHtX5mGt7joqg5bIhKcrXy/ipW/kTgLU5AXy4lh3LJ3Jtb9NBKXjLwQqKZe6bE61ffFRIQBPJf9/J7AwazD2xLAnVTV8ytpVfJKZBst9YQJcY7Lt4EtpSiIneC4Mkexf5Zd0IZ7H8IlNPC39QDzWPSGxhg7LEQFHPkSrf+5iwY43OAPf4lBdfAq0LV72q97+ubDriGQ4Le7DBLpXOGz7QAdZ3zYNj0jOKooDxC8AQw097QfEamrFnknDETMxGTQHOOfSJZcsvPA8UoeP7/AHQtW70oLPRYsG8Zd1F4hBuDxy/MWhS7Gqvr/wCy5q730QN+8dkph69IkhkoVd1GYKH7D703LHvTD6OslwLzV1vhz/qY+Sh8GT2z6RfQ3zvHwv1ng+tgXRl9Iem9W9ggtQMu2E9a+UeLAVecfZhBKoGEqvM+6DvqvSaB9i3Z0/3iAo5a4O/xmLloULFU+c895jzqNcsfY/39X0Or0BKgTg5uKUUwVzElYsLf+czAmuB5sxA0ADvuXoqqAfF/zLc7J7sHoq2O2FPruefp5JYgGS/UZRgEQ8G/hZkqqJ7XR7CX1r0fqbHAZc8S+7c5PYIDW3V1+IwvrLo1SPjevmVURYM6JV7YPkhSIdavMAE24/8AYWqcNde8wKvsC/H9/u4xv1oKvxdR4Y1hqXBt1wtKBWANum+v2wrEwUOah3e8rAByl6lSsNfM75PbnmYFrRZ5jCVGxbugM93iBbHycgLUWNZrr1gabhAuAUhjZ1IIosiK4ZOAv1+0YBFAgjgZvI85uMBhpobHojke0sBtNXuo5A474tIds0QOq34q4fNELsf+TgnFVD0QU3xiNjSc5q0D2SUPILiUo9sw7zQdr5mZegGy909P7+LBlCzVXyPUlnDAWUByOjqOYohEyZ/JiPgXmlkOex6zR1WrezaduL6/RAVABbfHqwcgRqm+Wj3IU/rNcObKwbrkrMOJDW9RIZFCbcF3hrAG4RxCBVQgnDw9TOowMHYGoPk83vjUsCqlSrjALwXl646wzySt0Mvu1jq45qNix9qauDRSs7rEwBAHNIAOhTq84hq7oaBnZZerMNessWAyBxC1JrfLrQ4rYN30uJCHxlV9M5YVV8Q9IlRTd2J8CV6lTLvNhzfhOTmCtjMJvxnEKgcC3RvNq9gQoaAHKvV77b6/4AhUdWa7nI9zMSogHBzpe69WWAlbC92aX3lEVAbAni6fibt1in3XaQqGyWka40OurgUIAFAVUA8VELwwTXQFEB1HKVi7uJjyWTVGnPEXcgTfVOMXYZss3MhRhoRXmsCu6+IJYwAar7+YMUnTSd93enZARSVoZ0OPK788sWWFfIqMrzR7yqQ8GqUa2wRi1hK6TYcl4ekL0YAKwRsy7BZ63ubCeLAd4WD4IWtG4pL5Ro+YsSnBs8MnNgYL2vUs+yzLlFIKjpbPrQ9JSqFtFUeV2vf/AApURqW0o318xCywwYMev6T/AAQdTzGFWcfgDExwa6f/AAsP/9k=&quot;,&quot;width&quot;:&quot;720&quot;,&quot;height&quot;:&quot;1383&quot;,&quot;x&quot;:0,&quot;y&quot;:0}" math="0" shadow="1">
      <root>
        <mxCell id="0" />
        <mxCell id="1" parent="0" />
        <mxCell id="Wa_3kqbKeeQC8nqx7MJy-1" value="Cutomer" style="rounded=0;whiteSpace=wrap;html=1;" parent="1" vertex="1">
          <mxGeometry x="115" y="410" width="100" height="30" as="geometry" />
        </mxCell>
        <mxCell id="Wa_3kqbKeeQC8nqx7MJy-2" value="complaint" style="rounded=0;whiteSpace=wrap;html=1;" parent="1" vertex="1">
          <mxGeometry x="360" y="410" width="110" height="30" as="geometry" />
        </mxCell>
        <mxCell id="Wa_3kqbKeeQC8nqx7MJy-3" value="" style="endArrow=none;html=1;rounded=0;exitX=1;exitY=0.5;exitDx=0;exitDy=0;entryX=0;entryY=0.5;entryDx=0;entryDy=0;" parent="1" source="Wa_3kqbKeeQC8nqx7MJy-1" edge="1" target="Wa_3kqbKeeQC8nqx7MJy-4">
          <mxGeometry width="50" height="50" relative="1" as="geometry">
            <mxPoint x="400" y="340" as="sourcePoint" />
            <mxPoint x="320" y="115" as="targetPoint" />
          </mxGeometry>
        </mxCell>
        <mxCell id="Wa_3kqbKeeQC8nqx7MJy-4" value="can" style="rhombus;whiteSpace=wrap;html=1;" parent="1" vertex="1">
          <mxGeometry x="250" y="400" width="80" height="50" as="geometry" />
        </mxCell>
        <mxCell id="Wa_3kqbKeeQC8nqx7MJy-5" value="" style="endArrow=none;html=1;rounded=0;entryX=1;entryY=0.5;entryDx=0;entryDy=0;exitX=0;exitY=0.5;exitDx=0;exitDy=0;" parent="1" source="Wa_3kqbKeeQC8nqx7MJy-2" target="Wa_3kqbKeeQC8nqx7MJy-4" edge="1">
          <mxGeometry width="50" height="50" relative="1" as="geometry">
            <mxPoint x="400" y="340" as="sourcePoint" />
            <mxPoint x="450" y="290" as="targetPoint" />
          </mxGeometry>
        </mxCell>
        <mxCell id="Wa_3kqbKeeQC8nqx7MJy-6" value="create" style="rhombus;whiteSpace=wrap;html=1;" parent="1" vertex="1">
          <mxGeometry x="130" y="480" width="70" height="60" as="geometry" />
        </mxCell>
        <mxCell id="Wa_3kqbKeeQC8nqx7MJy-7" value="pick-up requests" style="rounded=0;whiteSpace=wrap;html=1;" parent="1" vertex="1">
          <mxGeometry x="115" y="590" width="100" height="30" as="geometry" />
        </mxCell>
        <mxCell id="Wa_3kqbKeeQC8nqx7MJy-10" value="contain" style="rhombus;whiteSpace=wrap;html=1;" parent="1" vertex="1">
          <mxGeometry x="130" y="675" width="70" height="50" as="geometry" />
        </mxCell>
        <mxCell id="Wa_3kqbKeeQC8nqx7MJy-11" value="parcel" style="rounded=0;whiteSpace=wrap;html=1;" parent="1" vertex="1">
          <mxGeometry x="115" y="777.5" width="100" height="30" as="geometry" />
        </mxCell>
        <mxCell id="Wa_3kqbKeeQC8nqx7MJy-12" value="assign" style="rhombus;whiteSpace=wrap;html=1;" parent="1" vertex="1">
          <mxGeometry x="130" y="880" width="70" height="50" as="geometry" />
        </mxCell>
        <mxCell id="Wa_3kqbKeeQC8nqx7MJy-13" value="agent" style="rounded=0;whiteSpace=wrap;html=1;" parent="1" vertex="1">
          <mxGeometry x="115" y="1010" width="100" height="30" as="geometry" />
        </mxCell>
        <mxCell id="FGVEqTC1xZFuv8icdB9d-1" value="assign" style="rhombus;whiteSpace=wrap;html=1;" parent="1" vertex="1">
          <mxGeometry x="520" y="395" width="70" height="60" as="geometry" />
        </mxCell>
        <mxCell id="FGVEqTC1xZFuv8icdB9d-2" value="support agents&amp;nbsp;" style="rounded=0;whiteSpace=wrap;html=1;" parent="1" vertex="1">
          <mxGeometry x="600" y="407.5" width="120" height="35" as="geometry" />
        </mxCell>
        <mxCell id="FGVEqTC1xZFuv8icdB9d-3" style="edgeStyle=orthogonalEdgeStyle;rounded=0;orthogonalLoop=1;jettySize=auto;html=1;exitX=0.5;exitY=1;exitDx=0;exitDy=0;" parent="1" source="FGVEqTC1xZFuv8icdB9d-2" target="FGVEqTC1xZFuv8icdB9d-2" edge="1">
          <mxGeometry relative="1" as="geometry" />
        </mxCell>
        <mxCell id="FGVEqTC1xZFuv8icdB9d-4" value="has" style="rhombus;whiteSpace=wrap;html=1;" parent="1" vertex="1">
          <mxGeometry x="300" y="765" width="60" height="55" as="geometry" />
        </mxCell>
        <mxCell id="FGVEqTC1xZFuv8icdB9d-5" value="status update" style="rounded=0;whiteSpace=wrap;html=1;" parent="1" vertex="1">
          <mxGeometry x="460" y="772.5" width="100" height="30" as="geometry" />
        </mxCell>
        <mxCell id="FGVEqTC1xZFuv8icdB9d-6" value="" style="endArrow=none;html=1;rounded=0;exitX=1;exitY=0.5;exitDx=0;exitDy=0;entryX=0;entryY=0.5;entryDx=0;entryDy=0;" parent="1" source="Wa_3kqbKeeQC8nqx7MJy-2" target="FGVEqTC1xZFuv8icdB9d-1" edge="1">
          <mxGeometry width="50" height="50" relative="1" as="geometry">
            <mxPoint x="550" y="230" as="sourcePoint" />
            <mxPoint x="610" y="300" as="targetPoint" />
          </mxGeometry>
        </mxCell>
        <mxCell id="FGVEqTC1xZFuv8icdB9d-7" value="" style="endArrow=none;html=1;rounded=0;entryX=1;entryY=0.5;entryDx=0;entryDy=0;exitX=0;exitY=0.5;exitDx=0;exitDy=0;" parent="1" source="FGVEqTC1xZFuv8icdB9d-2" target="FGVEqTC1xZFuv8icdB9d-1" edge="1">
          <mxGeometry width="50" height="50" relative="1" as="geometry">
            <mxPoint x="560" y="350" as="sourcePoint" />
            <mxPoint x="610" y="300" as="targetPoint" />
          </mxGeometry>
        </mxCell>
        <mxCell id="FGVEqTC1xZFuv8icdB9d-8" value="" style="endArrow=none;html=1;rounded=0;exitX=0.5;exitY=1;exitDx=0;exitDy=0;" parent="1" source="Wa_3kqbKeeQC8nqx7MJy-1" target="Wa_3kqbKeeQC8nqx7MJy-6" edge="1">
          <mxGeometry width="50" height="50" relative="1" as="geometry">
            <mxPoint x="560" y="350" as="sourcePoint" />
            <mxPoint x="610" y="300" as="targetPoint" />
          </mxGeometry>
        </mxCell>
        <mxCell id="FGVEqTC1xZFuv8icdB9d-9" value="" style="endArrow=none;html=1;rounded=0;exitX=0.5;exitY=1;exitDx=0;exitDy=0;entryX=0.5;entryY=0;entryDx=0;entryDy=0;" parent="1" source="Wa_3kqbKeeQC8nqx7MJy-7" target="Wa_3kqbKeeQC8nqx7MJy-10" edge="1">
          <mxGeometry width="50" height="50" relative="1" as="geometry">
            <mxPoint x="560" y="350" as="sourcePoint" />
            <mxPoint x="200" y="290" as="targetPoint" />
          </mxGeometry>
        </mxCell>
        <mxCell id="FGVEqTC1xZFuv8icdB9d-10" value="" style="endArrow=none;html=1;rounded=0;entryX=0.5;entryY=1;entryDx=0;entryDy=0;exitX=0.5;exitY=0;exitDx=0;exitDy=0;" parent="1" source="Wa_3kqbKeeQC8nqx7MJy-7" target="Wa_3kqbKeeQC8nqx7MJy-6" edge="1">
          <mxGeometry width="50" height="50" relative="1" as="geometry">
            <mxPoint x="560" y="350" as="sourcePoint" />
            <mxPoint x="610" y="300" as="targetPoint" />
          </mxGeometry>
        </mxCell>
        <mxCell id="FGVEqTC1xZFuv8icdB9d-13" value="" style="endArrow=none;html=1;rounded=0;entryX=0.5;entryY=1;entryDx=0;entryDy=0;exitX=0.5;exitY=0;exitDx=0;exitDy=0;" parent="1" source="Wa_3kqbKeeQC8nqx7MJy-11" target="Wa_3kqbKeeQC8nqx7MJy-10" edge="1">
          <mxGeometry width="50" height="50" relative="1" as="geometry">
            <mxPoint x="560" y="350" as="sourcePoint" />
            <mxPoint x="610" y="300" as="targetPoint" />
          </mxGeometry>
        </mxCell>
        <mxCell id="FGVEqTC1xZFuv8icdB9d-14" value="" style="endArrow=none;html=1;rounded=0;entryX=0.5;entryY=1;entryDx=0;entryDy=0;exitX=0.5;exitY=0;exitDx=0;exitDy=0;" parent="1" target="Wa_3kqbKeeQC8nqx7MJy-11" edge="1" source="Wa_3kqbKeeQC8nqx7MJy-12">
          <mxGeometry width="50" height="50" relative="1" as="geometry">
            <mxPoint x="195" y="440" as="sourcePoint" />
            <mxPoint x="610" y="300" as="targetPoint" />
          </mxGeometry>
        </mxCell>
        <mxCell id="FGVEqTC1xZFuv8icdB9d-15" value="" style="endArrow=none;html=1;rounded=0;entryX=0.5;entryY=1;entryDx=0;entryDy=0;exitX=0.5;exitY=0;exitDx=0;exitDy=0;" parent="1" source="Wa_3kqbKeeQC8nqx7MJy-13" target="Wa_3kqbKeeQC8nqx7MJy-12" edge="1">
          <mxGeometry width="50" height="50" relative="1" as="geometry">
            <mxPoint x="560" y="350" as="sourcePoint" />
            <mxPoint x="610" y="300" as="targetPoint" />
          </mxGeometry>
        </mxCell>
        <mxCell id="FGVEqTC1xZFuv8icdB9d-16" value="" style="endArrow=none;html=1;rounded=0;entryX=1;entryY=0.5;entryDx=0;entryDy=0;exitX=0;exitY=0.5;exitDx=0;exitDy=0;" parent="1" source="FGVEqTC1xZFuv8icdB9d-4" target="Wa_3kqbKeeQC8nqx7MJy-11" edge="1">
          <mxGeometry width="50" height="50" relative="1" as="geometry">
            <mxPoint x="560" y="350" as="sourcePoint" />
            <mxPoint x="610" y="300" as="targetPoint" />
          </mxGeometry>
        </mxCell>
        <mxCell id="FGVEqTC1xZFuv8icdB9d-17" value="" style="endArrow=none;html=1;rounded=0;exitX=1;exitY=0.5;exitDx=0;exitDy=0;entryX=0;entryY=0.5;entryDx=0;entryDy=0;" parent="1" source="FGVEqTC1xZFuv8icdB9d-4" target="FGVEqTC1xZFuv8icdB9d-5" edge="1">
          <mxGeometry width="50" height="50" relative="1" as="geometry">
            <mxPoint x="560" y="350" as="sourcePoint" />
            <mxPoint x="610" y="300" as="targetPoint" />
          </mxGeometry>
        </mxCell>
        <mxCell id="FGVEqTC1xZFuv8icdB9d-19" value="" style="endArrow=none;html=1;rounded=0;exitX=1;exitY=0;exitDx=0;exitDy=0;entryX=0;entryY=0.5;entryDx=0;entryDy=0;" parent="1" source="FGVEqTC1xZFuv8icdB9d-5" target="FGVEqTC1xZFuv8icdB9d-20" edge="1">
          <mxGeometry width="50" height="50" relative="1" as="geometry">
            <mxPoint x="560" y="350" as="sourcePoint" />
            <mxPoint x="580" y="330" as="targetPoint" />
          </mxGeometry>
        </mxCell>
        <mxCell id="FGVEqTC1xZFuv8icdB9d-20" value="picked" style="ellipse;whiteSpace=wrap;html=1;" parent="1" vertex="1">
          <mxGeometry x="580" y="742.5" width="90" height="25" as="geometry" />
        </mxCell>
        <mxCell id="FGVEqTC1xZFuv8icdB9d-21" value="" style="endArrow=none;html=1;rounded=0;exitX=1;exitY=0.5;exitDx=0;exitDy=0;entryX=0;entryY=0.5;entryDx=0;entryDy=0;" parent="1" source="FGVEqTC1xZFuv8icdB9d-5" edge="1" target="FGVEqTC1xZFuv8icdB9d-22">
          <mxGeometry width="50" height="50" relative="1" as="geometry">
            <mxPoint x="560" y="350" as="sourcePoint" />
            <mxPoint x="600" y="370" as="targetPoint" />
          </mxGeometry>
        </mxCell>
        <mxCell id="FGVEqTC1xZFuv8icdB9d-22" value="in-transit" style="ellipse;whiteSpace=wrap;html=1;" parent="1" vertex="1">
          <mxGeometry x="600" y="778.75" width="90" height="27.5" as="geometry" />
        </mxCell>
        <mxCell id="FGVEqTC1xZFuv8icdB9d-23" value="" style="endArrow=none;html=1;rounded=0;exitX=1;exitY=1;exitDx=0;exitDy=0;" parent="1" source="FGVEqTC1xZFuv8icdB9d-5" edge="1">
          <mxGeometry width="50" height="50" relative="1" as="geometry">
            <mxPoint x="560" y="350" as="sourcePoint" />
            <mxPoint x="600" y="830" as="targetPoint" />
          </mxGeometry>
        </mxCell>
        <mxCell id="FGVEqTC1xZFuv8icdB9d-24" value="delivered" style="ellipse;whiteSpace=wrap;html=1;" parent="1" vertex="1">
          <mxGeometry x="590" y="820" width="100" height="30" as="geometry" />
        </mxCell>
        <mxCell id="FGVEqTC1xZFuv8icdB9d-25" value="fragile items" style="rounded=0;whiteSpace=wrap;html=1;" parent="1" vertex="1">
          <mxGeometry x="270" y="650" width="120" height="40" as="geometry" />
        </mxCell>
        <mxCell id="FGVEqTC1xZFuv8icdB9d-26" value="requires" style="rhombus;whiteSpace=wrap;html=1;" parent="1" vertex="1">
          <mxGeometry x="420" y="645" width="80" height="50" as="geometry" />
        </mxCell>
        <mxCell id="FGVEqTC1xZFuv8icdB9d-27" value="secure hub" style="rounded=0;whiteSpace=wrap;html=1;" parent="1" vertex="1">
          <mxGeometry x="550" y="650" width="120" height="40" as="geometry" />
        </mxCell>
        <mxCell id="FGVEqTC1xZFuv8icdB9d-28" value="" style="endArrow=none;html=1;rounded=0;exitX=0.5;exitY=0;exitDx=0;exitDy=0;entryX=0.5;entryY=1;entryDx=0;entryDy=0;" parent="1" source="FGVEqTC1xZFuv8icdB9d-4" target="FGVEqTC1xZFuv8icdB9d-25" edge="1">
          <mxGeometry width="50" height="50" relative="1" as="geometry">
            <mxPoint x="560" y="350" as="sourcePoint" />
            <mxPoint x="610" y="300" as="targetPoint" />
          </mxGeometry>
        </mxCell>
        <mxCell id="FGVEqTC1xZFuv8icdB9d-29" value="" style="endArrow=none;html=1;rounded=0;exitX=1;exitY=0.5;exitDx=0;exitDy=0;entryX=0;entryY=0.5;entryDx=0;entryDy=0;" parent="1" source="FGVEqTC1xZFuv8icdB9d-25" target="FGVEqTC1xZFuv8icdB9d-26" edge="1">
          <mxGeometry width="50" height="50" relative="1" as="geometry">
            <mxPoint x="560" y="350" as="sourcePoint" />
            <mxPoint x="530" y="290" as="targetPoint" />
          </mxGeometry>
        </mxCell>
        <mxCell id="FGVEqTC1xZFuv8icdB9d-30" value="" style="endArrow=none;html=1;rounded=0;exitX=1;exitY=0.5;exitDx=0;exitDy=0;entryX=0;entryY=0.5;entryDx=0;entryDy=0;" parent="1" source="FGVEqTC1xZFuv8icdB9d-26" target="FGVEqTC1xZFuv8icdB9d-27" edge="1">
          <mxGeometry width="50" height="50" relative="1" as="geometry">
            <mxPoint x="560" y="350" as="sourcePoint" />
            <mxPoint x="610" y="300" as="targetPoint" />
          </mxGeometry>
        </mxCell>
        <mxCell id="FGVEqTC1xZFuv8icdB9d-35" value="" style="endArrow=none;html=1;rounded=0;exitX=0.5;exitY=1;exitDx=0;exitDy=0;entryX=0.17;entryY=0.1;entryDx=0;entryDy=0;entryPerimeter=0;" parent="1" source="FGVEqTC1xZFuv8icdB9d-38" target="Wa_3kqbKeeQC8nqx7MJy-1" edge="1">
          <mxGeometry width="50" height="50" relative="1" as="geometry">
            <mxPoint x="180" y="50" as="sourcePoint" />
            <mxPoint x="140" y="410" as="targetPoint" />
          </mxGeometry>
        </mxCell>
        <mxCell id="FGVEqTC1xZFuv8icdB9d-36" value="" style="endArrow=none;html=1;rounded=0;exitX=0.9;exitY=1.033;exitDx=0;exitDy=0;exitPerimeter=0;" parent="1" source="Wa_3kqbKeeQC8nqx7MJy-11" target="FGVEqTC1xZFuv8icdB9d-37" edge="1">
          <mxGeometry width="50" height="50" relative="1" as="geometry">
            <mxPoint x="620" y="350" as="sourcePoint" />
            <mxPoint x="270" y="440" as="targetPoint" />
          </mxGeometry>
        </mxCell>
        <mxCell id="FGVEqTC1xZFuv8icdB9d-37" value="delay reasons&lt;div&gt;is type?&lt;/div&gt;" style="ellipse;whiteSpace=wrap;html=1;" parent="1" vertex="1">
          <mxGeometry x="200" y="830" width="90" height="30" as="geometry" />
        </mxCell>
        <mxCell id="FGVEqTC1xZFuv8icdB9d-38" value="&lt;u&gt;c-id&lt;/u&gt;" style="ellipse;whiteSpace=wrap;html=1;" parent="1" vertex="1">
          <mxGeometry x="130" y="330" width="70" height="20" as="geometry" />
        </mxCell>
        <mxCell id="FGVEqTC1xZFuv8icdB9d-39" value="" style="endArrow=none;html=1;rounded=0;exitX=0.25;exitY=0;exitDx=0;exitDy=0;entryX=0.5;entryY=1;entryDx=0;entryDy=0;" parent="1" source="Wa_3kqbKeeQC8nqx7MJy-1" edge="1" target="FGVEqTC1xZFuv8icdB9d-40">
          <mxGeometry width="50" height="50" relative="1" as="geometry">
            <mxPoint x="620" y="350" as="sourcePoint" />
            <mxPoint x="210" y="80" as="targetPoint" />
          </mxGeometry>
        </mxCell>
        <mxCell id="FGVEqTC1xZFuv8icdB9d-40" value="c-name" style="ellipse;whiteSpace=wrap;html=1;" parent="1" vertex="1">
          <mxGeometry x="165" y="350" width="60" height="20" as="geometry" />
        </mxCell>
        <mxCell id="FGVEqTC1xZFuv8icdB9d-41" value="" style="endArrow=none;html=1;rounded=0;exitX=0.63;exitY=0;exitDx=0;exitDy=0;exitPerimeter=0;" parent="1" source="Wa_3kqbKeeQC8nqx7MJy-1" target="FGVEqTC1xZFuv8icdB9d-42" edge="1">
          <mxGeometry width="50" height="50" relative="1" as="geometry">
            <mxPoint x="620" y="350" as="sourcePoint" />
            <mxPoint x="260" y="80" as="targetPoint" />
          </mxGeometry>
        </mxCell>
        <mxCell id="FGVEqTC1xZFuv8icdB9d-42" value="c-phone" style="ellipse;whiteSpace=wrap;html=1;" parent="1" vertex="1">
          <mxGeometry x="185" y="370" width="55" height="20" as="geometry" />
        </mxCell>
        <mxCell id="FGVEqTC1xZFuv8icdB9d-43" value="" style="endArrow=none;html=1;rounded=0;exitX=0.12;exitY=0.033;exitDx=0;exitDy=0;exitPerimeter=0;" parent="1" source="Wa_3kqbKeeQC8nqx7MJy-1" target="FGVEqTC1xZFuv8icdB9d-44" edge="1">
          <mxGeometry width="50" height="50" relative="1" as="geometry">
            <mxPoint x="620" y="350" as="sourcePoint" />
            <mxPoint x="130" y="90" as="targetPoint" />
          </mxGeometry>
        </mxCell>
        <mxCell id="FGVEqTC1xZFuv8icdB9d-44" value="c-address" style="ellipse;whiteSpace=wrap;html=1;" parent="1" vertex="1">
          <mxGeometry x="110" y="360" width="60" height="20" as="geometry" />
        </mxCell>
        <mxCell id="FGVEqTC1xZFuv8icdB9d-45" value="" style="endArrow=none;html=1;rounded=0;exitX=0;exitY=0;exitDx=0;exitDy=0;" parent="1" source="Wa_3kqbKeeQC8nqx7MJy-2" target="FGVEqTC1xZFuv8icdB9d-46" edge="1">
          <mxGeometry width="50" height="50" relative="1" as="geometry">
            <mxPoint x="610" y="350" as="sourcePoint" />
            <mxPoint x="440" y="80" as="targetPoint" />
          </mxGeometry>
        </mxCell>
        <mxCell id="FGVEqTC1xZFuv8icdB9d-46" value="&lt;u&gt;com-id&lt;/u&gt;" style="ellipse;whiteSpace=wrap;html=1;" parent="1" vertex="1">
          <mxGeometry x="360" y="370" width="60" height="20" as="geometry" />
        </mxCell>
        <mxCell id="FGVEqTC1xZFuv8icdB9d-55" value="" style="endArrow=none;html=1;rounded=0;exitX=0.25;exitY=0;exitDx=0;exitDy=0;" parent="1" source="Wa_3kqbKeeQC8nqx7MJy-2" target="FGVEqTC1xZFuv8icdB9d-56" edge="1">
          <mxGeometry width="50" height="50" relative="1" as="geometry">
            <mxPoint x="610" y="350" as="sourcePoint" />
            <mxPoint x="470" y="80" as="targetPoint" />
          </mxGeometry>
        </mxCell>
        <mxCell id="FGVEqTC1xZFuv8icdB9d-56" value="date" style="ellipse;whiteSpace=wrap;html=1;" parent="1" vertex="1">
          <mxGeometry x="410" y="350" width="70" height="20" as="geometry" />
        </mxCell>
        <mxCell id="FGVEqTC1xZFuv8icdB9d-57" value="" style="endArrow=none;html=1;rounded=0;exitX=0.5;exitY=0;exitDx=0;exitDy=0;" parent="1" source="Wa_3kqbKeeQC8nqx7MJy-2" target="FGVEqTC1xZFuv8icdB9d-58" edge="1">
          <mxGeometry width="50" height="50" relative="1" as="geometry">
            <mxPoint x="610" y="350" as="sourcePoint" />
            <mxPoint x="530" y="90" as="targetPoint" />
          </mxGeometry>
        </mxCell>
        <mxCell id="AY3s0mJvzWFokIUwKKqd-24" value="" style="edgeStyle=orthogonalEdgeStyle;rounded=0;orthogonalLoop=1;jettySize=auto;html=1;" edge="1" parent="1" source="FGVEqTC1xZFuv8icdB9d-58" target="FGVEqTC1xZFuv8icdB9d-46">
          <mxGeometry relative="1" as="geometry" />
        </mxCell>
        <mxCell id="FGVEqTC1xZFuv8icdB9d-58" value="time" style="ellipse;whiteSpace=wrap;html=1;" parent="1" vertex="1">
          <mxGeometry x="425" y="380" width="50" height="20" as="geometry" />
        </mxCell>
        <mxCell id="AY3s0mJvzWFokIUwKKqd-8" value="&lt;div style=&quot;&quot;&gt;&lt;b&gt;&lt;font style=&quot;font-size: 15px;&quot;&gt;INTRODUCTION&lt;/font&gt;&lt;/b&gt;&lt;/div&gt;&lt;div style=&quot;&quot;&gt;&lt;span style=&quot;background-color: transparent; color: light-dark(rgb(0, 0, 0), rgb(255, 255, 255));&quot;&gt;&lt;b&gt;&lt;font style=&quot;font-size: 13px;&quot;&gt;NAME&lt;/font&gt;&lt;/b&gt;: AZWA JAMAL(110846) &amp;amp; IQRA MAQSOOD(110847)&lt;/span&gt;&lt;/div&gt;&lt;div style=&quot;&quot;&gt;&lt;b&gt;PROJECT NO:&lt;/b&gt;&amp;nbsp;3RD&lt;span style=&quot;background-color: transparent; color: light-dark(rgb(0, 0, 0), rgb(255, 255, 255));&quot;&gt;&lt;/span&gt;&lt;/div&gt;&lt;div&gt;&lt;div&gt;&amp;nbsp; &amp;nbsp; &amp;nbsp; &amp;nbsp; &amp;nbsp; &amp;nbsp; &amp;nbsp; &amp;nbsp; &lt;b&gt;&amp;nbsp;&lt;font style=&quot;font-size: 13px;&quot;&gt;PROJECT NAME&lt;/font&gt;&lt;/b&gt; : Courier Management with Parcel Tracking and Agent&lt;/div&gt;&lt;/div&gt;&lt;div&gt;&lt;font style=&quot;&quot;&gt;&lt;b style=&quot;&quot;&gt;&lt;font style=&quot;font-size: 14px;&quot;&gt;&amp;nbsp;---------o8(TABLE)8o-------&lt;/font&gt;&lt;span style=&quot;font-size: 13px;&quot;&gt;-&lt;/span&gt;&lt;/b&gt;&lt;/font&gt;&lt;/div&gt;&lt;div&gt;&lt;b&gt;CUSTOMER&lt;/b&gt;(&lt;u&gt;c-id&lt;/u&gt;,c-name,c-phone,c-address)&lt;/div&gt;&lt;div&gt;&lt;b&gt;PICK-UP REQUEST&lt;/b&gt;(request-date)&lt;/div&gt;&lt;div&gt;&lt;b&gt;SUPPORT AGENT&lt;/b&gt;(&lt;u&gt;sp-id&lt;/u&gt;,sp-name,sp-phone-no,shift-time,role)&lt;/div&gt;&lt;div&gt;&lt;b&gt;COMPLAINT&lt;/b&gt;(&lt;u&gt;complaint-id&lt;/u&gt;,c-date,c-time)&lt;/div&gt;&lt;div&gt;&lt;b&gt;FRIGILE ITEM&lt;/b&gt;(item-description,handling-instruction,value)&lt;/div&gt;&lt;div&gt;&lt;b&gt;SECURE HUB&lt;/b&gt;(location,capacity,security-level,)&lt;/div&gt;&lt;div&gt;&lt;b&gt;PARCEL&lt;/b&gt;(&lt;u&gt;parcel-id&lt;/u&gt;,weight,destination-address)&lt;/div&gt;&lt;div&gt;&lt;b&gt;STATUS UPDATE&lt;/b&gt;(picked,intransit,delivered)&lt;/div&gt;&lt;div&gt;&lt;b&gt;AGENT&lt;/b&gt;(&lt;u&gt;agent-id&lt;/u&gt;,agent-name,agent-contact,agent-address)&lt;/div&gt;" style="rounded=0;whiteSpace=wrap;html=1;" vertex="1" parent="1">
          <mxGeometry x="40" y="40" width="460" height="240" as="geometry" />
        </mxCell>
        <mxCell id="AY3s0mJvzWFokIUwKKqd-9" value="" style="endArrow=none;html=1;rounded=0;exitX=0.075;exitY=0.014;exitDx=0;exitDy=0;exitPerimeter=0;" edge="1" parent="1" source="FGVEqTC1xZFuv8icdB9d-2" target="AY3s0mJvzWFokIUwKKqd-10">
          <mxGeometry width="50" height="50" relative="1" as="geometry">
            <mxPoint x="400" y="410" as="sourcePoint" />
            <mxPoint x="620" y="350" as="targetPoint" />
          </mxGeometry>
        </mxCell>
        <mxCell id="AY3s0mJvzWFokIUwKKqd-10" value="sp-name" style="ellipse;whiteSpace=wrap;html=1;" vertex="1" parent="1">
          <mxGeometry x="560" y="360" width="90" height="30" as="geometry" />
        </mxCell>
        <mxCell id="AY3s0mJvzWFokIUwKKqd-11" value="" style="endArrow=none;html=1;rounded=0;exitX=0.25;exitY=0;exitDx=0;exitDy=0;" edge="1" parent="1" source="FGVEqTC1xZFuv8icdB9d-2" target="AY3s0mJvzWFokIUwKKqd-12">
          <mxGeometry width="50" height="50" relative="1" as="geometry">
            <mxPoint x="400" y="410" as="sourcePoint" />
            <mxPoint x="660" y="390" as="targetPoint" />
          </mxGeometry>
        </mxCell>
        <mxCell id="AY3s0mJvzWFokIUwKKqd-12" value="&lt;u&gt;sp-id&lt;/u&gt;" style="ellipse;whiteSpace=wrap;html=1;" vertex="1" parent="1">
          <mxGeometry x="610" y="375" width="70" height="30" as="geometry" />
        </mxCell>
        <mxCell id="AY3s0mJvzWFokIUwKKqd-13" value="" style="endArrow=none;html=1;rounded=0;entryX=0.617;entryY=0.014;entryDx=0;entryDy=0;entryPerimeter=0;" edge="1" parent="1" target="FGVEqTC1xZFuv8icdB9d-2">
          <mxGeometry width="50" height="50" relative="1" as="geometry">
            <mxPoint x="680" y="370" as="sourcePoint" />
            <mxPoint x="450" y="360" as="targetPoint" />
          </mxGeometry>
        </mxCell>
        <mxCell id="AY3s0mJvzWFokIUwKKqd-14" value="sp-address" style="ellipse;whiteSpace=wrap;html=1;" vertex="1" parent="1">
          <mxGeometry x="650" y="350" width="80" height="30" as="geometry" />
        </mxCell>
        <mxCell id="AY3s0mJvzWFokIUwKKqd-15" value="" style="endArrow=none;html=1;rounded=0;" edge="1" parent="1" source="AY3s0mJvzWFokIUwKKqd-18">
          <mxGeometry width="50" height="50" relative="1" as="geometry">
            <mxPoint x="400" y="410" as="sourcePoint" />
            <mxPoint x="220" y="560" as="targetPoint" />
          </mxGeometry>
        </mxCell>
        <mxCell id="AY3s0mJvzWFokIUwKKqd-16" value="" style="endArrow=none;html=1;rounded=0;" edge="1" parent="1" target="AY3s0mJvzWFokIUwKKqd-17">
          <mxGeometry width="50" height="50" relative="1" as="geometry">
            <mxPoint x="288" y="660" as="sourcePoint" />
            <mxPoint x="290" y="600" as="targetPoint" />
          </mxGeometry>
        </mxCell>
        <mxCell id="AY3s0mJvzWFokIUwKKqd-17" value="handling-instructions" style="ellipse;whiteSpace=wrap;html=1;" vertex="1" parent="1">
          <mxGeometry x="240" y="610" width="90" height="30" as="geometry" />
        </mxCell>
        <mxCell id="AY3s0mJvzWFokIUwKKqd-19" value="" style="endArrow=none;html=1;rounded=0;" edge="1" parent="1" source="Wa_3kqbKeeQC8nqx7MJy-7" target="AY3s0mJvzWFokIUwKKqd-18">
          <mxGeometry width="50" height="50" relative="1" as="geometry">
            <mxPoint x="183" y="590" as="sourcePoint" />
            <mxPoint x="220" y="560" as="targetPoint" />
          </mxGeometry>
        </mxCell>
        <mxCell id="AY3s0mJvzWFokIUwKKqd-18" value="request-date" style="ellipse;whiteSpace=wrap;html=1;" vertex="1" parent="1">
          <mxGeometry x="180" y="550" width="90" height="30" as="geometry" />
        </mxCell>
        <mxCell id="AY3s0mJvzWFokIUwKKqd-20" value="" style="endArrow=none;html=1;rounded=0;exitX=0.5;exitY=0;exitDx=0;exitDy=0;" edge="1" parent="1" source="FGVEqTC1xZFuv8icdB9d-25" target="AY3s0mJvzWFokIUwKKqd-21">
          <mxGeometry width="50" height="50" relative="1" as="geometry">
            <mxPoint x="400" y="410" as="sourcePoint" />
            <mxPoint x="340" y="630" as="targetPoint" />
          </mxGeometry>
        </mxCell>
        <mxCell id="AY3s0mJvzWFokIUwKKqd-21" value="item-description" style="ellipse;whiteSpace=wrap;html=1;" vertex="1" parent="1">
          <mxGeometry x="320" y="590" width="100" height="40" as="geometry" />
        </mxCell>
        <mxCell id="AY3s0mJvzWFokIUwKKqd-22" value="" style="endArrow=none;html=1;rounded=0;exitX=0;exitY=0;exitDx=0;exitDy=0;" edge="1" parent="1" source="FGVEqTC1xZFuv8icdB9d-27">
          <mxGeometry width="50" height="50" relative="1" as="geometry">
            <mxPoint x="400" y="410" as="sourcePoint" />
            <mxPoint x="530" y="600" as="targetPoint" />
          </mxGeometry>
        </mxCell>
        <mxCell id="AY3s0mJvzWFokIUwKKqd-25" value="" style="endArrow=none;html=1;rounded=0;" edge="1" parent="1" source="FGVEqTC1xZFuv8icdB9d-27">
          <mxGeometry width="50" height="50" relative="1" as="geometry">
            <mxPoint x="400" y="410" as="sourcePoint" />
            <mxPoint x="590" y="580" as="targetPoint" />
          </mxGeometry>
        </mxCell>
        <mxCell id="AY3s0mJvzWFokIUwKKqd-26" value="" style="endArrow=none;html=1;rounded=0;exitX=0.867;exitY=-0.025;exitDx=0;exitDy=0;exitPerimeter=0;" edge="1" parent="1" source="FGVEqTC1xZFuv8icdB9d-27" target="AY3s0mJvzWFokIUwKKqd-27">
          <mxGeometry width="50" height="50" relative="1" as="geometry">
            <mxPoint x="400" y="410" as="sourcePoint" />
            <mxPoint x="630" y="580" as="targetPoint" />
          </mxGeometry>
        </mxCell>
        <mxCell id="AY3s0mJvzWFokIUwKKqd-27" value="security-level" style="ellipse;whiteSpace=wrap;html=1;" vertex="1" parent="1">
          <mxGeometry x="630" y="580" width="90" height="40" as="geometry" />
        </mxCell>
        <mxCell id="AY3s0mJvzWFokIUwKKqd-28" value="capacity" style="ellipse;whiteSpace=wrap;html=1;" vertex="1" parent="1">
          <mxGeometry x="530" y="570" width="110" height="35" as="geometry" />
        </mxCell>
        <mxCell id="AY3s0mJvzWFokIUwKKqd-30" value="location" style="ellipse;whiteSpace=wrap;html=1;" vertex="1" parent="1">
          <mxGeometry x="425" y="585" width="110" height="40" as="geometry" />
        </mxCell>
        <mxCell id="AY3s0mJvzWFokIUwKKqd-31" value="" style="endArrow=none;html=1;rounded=0;exitX=0.19;exitY=-0.083;exitDx=0;exitDy=0;exitPerimeter=0;" edge="1" parent="1" source="Wa_3kqbKeeQC8nqx7MJy-11">
          <mxGeometry width="50" height="50" relative="1" as="geometry">
            <mxPoint x="400" y="560" as="sourcePoint" />
            <mxPoint x="110" y="740" as="targetPoint" />
          </mxGeometry>
        </mxCell>
        <mxCell id="AY3s0mJvzWFokIUwKKqd-32" value="" style="endArrow=none;html=1;rounded=0;exitX=0.66;exitY=0.05;exitDx=0;exitDy=0;exitPerimeter=0;" edge="1" parent="1" source="Wa_3kqbKeeQC8nqx7MJy-11">
          <mxGeometry width="50" height="50" relative="1" as="geometry">
            <mxPoint x="400" y="730" as="sourcePoint" />
            <mxPoint x="190" y="740" as="targetPoint" />
          </mxGeometry>
        </mxCell>
        <mxCell id="AY3s0mJvzWFokIUwKKqd-33" value="" style="endArrow=none;html=1;rounded=0;exitX=0;exitY=0.75;exitDx=0;exitDy=0;" edge="1" parent="1" source="Wa_3kqbKeeQC8nqx7MJy-11" target="AY3s0mJvzWFokIUwKKqd-34">
          <mxGeometry width="50" height="50" relative="1" as="geometry">
            <mxPoint x="110" y="800" as="sourcePoint" />
            <mxPoint x="80" y="780" as="targetPoint" />
          </mxGeometry>
        </mxCell>
        <mxCell id="AY3s0mJvzWFokIUwKKqd-34" value="weight" style="ellipse;whiteSpace=wrap;html=1;" vertex="1" parent="1">
          <mxGeometry x="10" y="765" width="80" height="30" as="geometry" />
        </mxCell>
        <mxCell id="AY3s0mJvzWFokIUwKKqd-35" value="destination-address" style="ellipse;whiteSpace=wrap;html=1;" vertex="1" parent="1">
          <mxGeometry x="20" y="720" width="90" height="40" as="geometry" />
        </mxCell>
        <mxCell id="AY3s0mJvzWFokIUwKKqd-36" value="&lt;u&gt;p-id&lt;/u&gt;" style="ellipse;whiteSpace=wrap;html=1;" vertex="1" parent="1">
          <mxGeometry x="180" y="715" width="110" height="45" as="geometry" />
        </mxCell>
        <mxCell id="AY3s0mJvzWFokIUwKKqd-37" value="" style="endArrow=none;html=1;rounded=0;" edge="1" parent="1" target="FGVEqTC1xZFuv8icdB9d-5">
          <mxGeometry width="50" height="50" relative="1" as="geometry">
            <mxPoint x="500" y="860" as="sourcePoint" />
            <mxPoint x="450" y="790" as="targetPoint" />
          </mxGeometry>
        </mxCell>
        <mxCell id="AY3s0mJvzWFokIUwKKqd-38" value="" style="endArrow=none;html=1;rounded=0;exitX=1;exitY=0.75;exitDx=0;exitDy=0;" edge="1" parent="1" source="Wa_3kqbKeeQC8nqx7MJy-13">
          <mxGeometry width="50" height="50" relative="1" as="geometry">
            <mxPoint x="400" y="840" as="sourcePoint" />
            <mxPoint x="270" y="1040" as="targetPoint" />
          </mxGeometry>
        </mxCell>
        <mxCell id="AY3s0mJvzWFokIUwKKqd-39" value="" style="endArrow=none;html=1;rounded=0;exitX=0.75;exitY=1;exitDx=0;exitDy=0;" edge="1" parent="1" source="Wa_3kqbKeeQC8nqx7MJy-13">
          <mxGeometry width="50" height="50" relative="1" as="geometry">
            <mxPoint x="400" y="840" as="sourcePoint" />
            <mxPoint x="190" y="1070" as="targetPoint" />
          </mxGeometry>
        </mxCell>
        <mxCell id="AY3s0mJvzWFokIUwKKqd-40" value="" style="endArrow=none;html=1;rounded=0;exitX=0.5;exitY=1;exitDx=0;exitDy=0;" edge="1" parent="1" source="Wa_3kqbKeeQC8nqx7MJy-13" target="AY3s0mJvzWFokIUwKKqd-41">
          <mxGeometry width="50" height="50" relative="1" as="geometry">
            <mxPoint x="400" y="850" as="sourcePoint" />
            <mxPoint x="160" y="1070" as="targetPoint" />
          </mxGeometry>
        </mxCell>
        <mxCell id="AY3s0mJvzWFokIUwKKqd-41" value="agent-contact" style="ellipse;whiteSpace=wrap;html=1;" vertex="1" parent="1">
          <mxGeometry x="120" y="1080" width="90" height="40" as="geometry" />
        </mxCell>
        <mxCell id="AY3s0mJvzWFokIUwKKqd-42" value="agent-name" style="ellipse;whiteSpace=wrap;html=1;" vertex="1" parent="1">
          <mxGeometry x="250" y="1020" width="90" height="40" as="geometry" />
        </mxCell>
        <mxCell id="AY3s0mJvzWFokIUwKKqd-43" value="&lt;u&gt;agent-id&lt;/u&gt;" style="ellipse;whiteSpace=wrap;html=1;" vertex="1" parent="1">
          <mxGeometry x="180" y="1040" width="70" height="40" as="geometry" />
        </mxCell>
        <mxCell id="AY3s0mJvzWFokIUwKKqd-44" value="" style="endArrow=none;html=1;rounded=0;" edge="1" parent="1">
          <mxGeometry width="50" height="50" relative="1" as="geometry">
            <mxPoint x="134" y="1043" as="sourcePoint" />
            <mxPoint x="90" y="1060" as="targetPoint" />
          </mxGeometry>
        </mxCell>
        <mxCell id="AY3s0mJvzWFokIUwKKqd-46" value="agent-address" style="ellipse;whiteSpace=wrap;html=1;" vertex="1" parent="1">
          <mxGeometry x="20" y="1050" width="90" height="50" as="geometry" />
        </mxCell>
      </root>
    </mxGraphModel>
  </diagram>
</mxfile>
